<svg width="310" height="645" viewBox="0 0 310 645" fill="none" xmlns="http://www.w3.org/2000/svg">
<g clip-path="url(#clip0_30_46)">
<path d="M45.2632 152.919C62.1325 152.919 75.8522 139.199 75.8522 122.33C75.8522 105.46 62.1325 91.7405 45.2632 91.7405C28.3938 91.7405 14.6741 105.46 14.6741 122.33C14.6741 139.199 28.3938 152.919 45.2632 152.919ZM45.2632 94.7367C60.4776 94.7367 72.8494 107.115 72.8494 122.323C72.8494 137.531 60.471 149.909 45.2632 149.909C30.0554 149.909 17.6769 137.531 17.6769 122.323C17.6769 107.115 30.0554 94.7367 45.2632 94.7367Z" fill="black"/>
<path d="M249.644 507.369L250.298 506.268C254.349 499.462 258.726 486.936 258.753 475.532L258.766 471.442L256.11 474.558C251.693 479.736 248.036 492.969 247.522 501.924C245.153 495.511 243.425 489.619 242.237 484.2L243.645 482.265C248.303 475.859 253.815 463.788 254.889 452.43L255.276 448.36L252.347 451.216C247.309 456.127 242.29 469.687 241.163 478.562C239.635 469.126 239.795 461.212 240.962 454.459C246.114 448.373 252.4 437.169 254.442 426.239L255.189 422.215L252.013 424.797C245.947 429.729 238.941 445.303 237.933 453.772L237.733 455.446C235.471 470.694 238.113 491.401 252.487 521.116C263.871 544.658 283.143 595.82 283.143 638.22H286.145C286.145 595.273 266.687 543.577 255.189 519.808C253.087 515.464 251.246 511.326 249.637 507.376L249.644 507.369ZM255.289 481.992C254.502 487.837 252.8 493.616 250.839 498.367C251.586 492.735 253.328 486.556 255.289 481.992ZM250.839 458.543C249.517 464.288 247.289 469.894 244.906 474.445C246.167 468.906 248.47 462.914 250.839 458.543ZM242.831 446.765C244.412 441.787 246.514 437.536 248.71 433.786C249.09 433.152 249.477 432.545 249.858 431.964C248.096 437.356 245.507 442.528 242.831 446.758V446.765Z" fill="black"/>
<path d="M214.844 484.394C199.677 449.861 206.737 436.048 212.889 425.211H215.832C224.133 425.211 231.493 420.233 234.583 412.532L245.146 384.192C245.767 378.58 244.472 373.035 241.556 369.078C238.981 365.588 235.337 363.466 231.006 362.945C221.738 361.824 221.37 359.709 220.376 354.057C220.296 353.603 220.216 353.129 220.123 352.642C216.746 334.391 214.671 291.958 213.937 274.561C213.683 268.602 214.884 260.414 218.147 255.55C240.115 222.719 248.096 203.434 248.65 181.86C249.11 164.016 242.497 147.047 230.025 134.034C226.475 116.257 213.43 106.575 202.279 106.188L201.391 106.742C199.757 107.763 198.269 110.785 197.234 114.582C193.711 114.362 182.887 113.755 176.715 114.129L175.567 114.195C169.675 114.529 165.024 114.796 159.251 121.389C156.709 124.292 151.651 127.935 146.886 129.296C144.958 129.85 142.162 130.664 139.299 131.498C136.116 132.426 132.853 133.38 130.624 134.014C127.915 134.782 126.18 136.703 126.2 138.906L126.233 142.776C126.293 149.028 126.374 157.597 126.374 162.428C126.374 166.632 126.373 173.665 134.141 174.626C135.582 174.806 137.064 174.966 138.565 175.133C151.731 176.588 165.324 178.096 169.948 191.122C159.879 198.969 142.983 204.021 123.437 209.853C112.654 213.069 101.503 216.399 90.2525 220.57C29.5214 243.098 0 285.485 0 350.16C0 390.565 25.4375 424.404 52.5566 451.156H21.4404V454.159H55.6396C66.3898 464.515 77.2601 473.764 86.7825 481.865C89.9589 484.568 92.9617 487.117 95.7644 489.546C97.8731 491.374 99.9751 493.182 102.057 494.977C132.439 521.149 158.671 543.751 158.671 578.27C158.671 601.272 144.491 617.968 124.945 617.968C117.565 617.968 111.553 623.973 111.553 631.36C111.553 638.748 117.558 644.753 124.945 644.753C147.554 644.753 161.574 633.669 169.354 624.374C178.99 612.863 184.515 597.568 184.515 582.421C184.515 558.478 174.726 534.695 154.6 509.725C139.493 490.987 120.441 473.557 96.8921 453.965H202.933C203.654 462.36 206.363 472.536 212.102 485.602C216.259 495.064 220.91 504.266 225.408 513.161C242.064 546.086 259.28 580.132 257.538 638.174L260.541 638.26C262.309 579.451 244.913 545.058 228.09 511.8C223.613 502.938 218.975 493.783 214.851 484.387L214.844 484.394ZM174.606 384.185C174.132 379.021 171.343 362.171 155.208 362.171C151.644 362.171 145.512 362.071 139.012 361.958C132.486 361.851 125.76 361.737 121.022 361.717C120.895 360.022 120.968 357.353 122.009 355.411C125.086 349.666 127.475 344.207 129.296 339.042L129.336 339.083C129.623 338.809 156.656 312.584 169.388 301.72C174.639 319.037 182.514 345.288 188.272 364.5C190.161 370.793 191.776 376.185 192.917 379.995C193.444 381.743 193.864 383.158 194.178 384.179H174.606V384.185ZM152.251 511.607C171.937 536.023 181.506 559.185 181.506 582.414C181.506 596.868 176.234 611.462 167.046 622.439C159.679 631.247 146.393 641.737 124.945 641.737C119.22 641.737 114.556 637.079 114.556 631.347C114.556 625.615 119.213 620.957 124.945 620.957H143.063V617.954H139.212C142.662 616.406 145.819 614.291 148.595 611.688H156.108V608.686H151.444C153.059 606.784 154.507 604.688 155.775 602.42H164.657V599.417H157.296C158.204 597.435 158.985 595.34 159.618 593.151H168.48V590.148H160.386C160.84 588.126 161.173 586.037 161.387 583.882H171.857V580.879H161.607C161.647 580.012 161.674 579.137 161.674 578.25C161.674 577.022 161.64 575.814 161.58 574.62H171.863V571.617H161.367C161.16 569.482 160.86 567.4 160.466 565.351H171.863V562.348H159.819C159.305 560.213 158.691 558.131 157.977 556.082H167.813V553.079H156.856C156.008 550.951 155.054 548.862 154.006 546.813H163.916V543.811H152.392C151.19 541.689 149.883 539.6 148.488 537.545H159.412V534.542H146.366C144.818 532.426 143.169 530.338 141.434 528.276H153.112V525.273H138.839C136.97 523.164 135.015 521.082 132.98 519.007H143.51V516.004H129.977C127.848 513.909 125.646 511.827 123.384 509.738H134.962V506.735H120.088C117.779 504.653 115.416 502.571 113.014 500.469H123.991V497.466H109.558C107.722 495.878 105.874 494.283 104.006 492.675C103.438 492.188 102.864 491.688 102.297 491.201H111.593V488.198H98.8206C98.4536 487.877 98.0933 487.57 97.7196 487.25C95.7444 485.542 93.6757 483.767 91.5204 481.932H99.1943V478.929H87.9903C85.6147 476.914 83.1657 474.825 80.6567 472.663H89.0647V469.66H77.1801C74.8445 467.631 72.4622 465.543 70.0599 463.394H78.0409V460.391H66.7301C64.488 458.349 62.2325 456.261 59.977 454.125H67.0371V451.122H56.8474C29.3479 424.444 2.99618 390.511 2.99618 350.126C2.99618 286.86 31.877 245.393 91.2868 223.352C102.444 219.215 113.548 215.899 124.285 212.696C154.58 203.654 180.745 195.853 182.674 174.973L179.684 174.693C179.157 180.418 176.555 185.063 172.364 189.013C166.785 175.2 152.005 173.558 138.885 172.11C137.397 171.944 135.936 171.783 134.508 171.61C130.144 171.069 129.376 168.207 129.376 162.388C129.376 161.881 129.376 161.327 129.376 160.74C131.085 160.733 133.227 160.706 135.609 160.673C140.74 160.826 144.504 161.907 148.154 162.948C151.651 163.949 154.954 164.897 159.031 164.897C160.913 164.897 162.541 164.523 163.742 163.816C165.044 163.048 165.784 161.914 165.784 160.7C165.784 159.018 164.33 157.323 161.087 157.323C158.531 157.323 152.645 157.416 146.413 157.51C142.702 157.57 138.925 157.623 135.616 157.67C135.202 157.657 134.775 157.65 134.341 157.65V157.683C132.453 157.71 130.751 157.723 129.35 157.73C129.336 155.681 129.323 153.419 129.303 151.137C129.797 144.611 132.179 141.942 137.537 141.942V138.939C133.854 138.939 131.098 140.053 129.223 142.289L129.19 138.832C129.183 137.911 130.344 137.164 131.432 136.857C133.667 136.223 136.937 135.269 140.127 134.335C142.983 133.5 145.772 132.686 147.7 132.139C153.266 130.551 158.751 126.454 161.5 123.324C166.445 117.679 169.935 117.485 175.727 117.151L176.882 117.085C182.554 116.738 192.636 117.272 196.534 117.505C195.886 120.908 195.606 124.645 195.873 128.002L198.869 127.762C198.282 120.448 200.504 112.547 202.266 109.978C205.802 113.001 213.309 120.895 213.89 133.734L216.893 133.6C216.366 121.996 210.647 114.089 206.503 109.845C214.397 112.047 224.22 119.547 227.143 134.982L227.229 135.422L227.543 135.743C239.648 148.214 246.074 164.543 245.634 181.726C245.1 202.659 237.246 221.524 215.638 253.821C211.755 259.627 210.674 268.656 210.927 274.635C211.668 292.098 213.75 334.698 217.16 353.136C217.247 353.616 217.333 354.077 217.407 354.524C218.554 361.07 219.669 364.547 230.633 365.868C234.116 366.288 237.052 367.997 239.127 370.806C241.656 374.236 242.744 379.134 242.124 384.112H237.753C237.686 378.166 236.792 369.778 225.508 369.778V372.781C232.861 372.781 234.563 376.592 234.743 384.105H229.365C228.871 377.633 225.174 376.892 223.519 376.892V379.895C225.461 379.895 226.155 381.937 226.355 384.099L197.288 384.072C196.8 382.477 195.786 379.101 194.458 374.656H203.34V371.654H193.557C192.817 369.178 192.003 366.469 191.142 363.606C191.075 363.392 191.015 363.172 190.948 362.959H200.19V359.956H190.047C189.207 357.16 188.339 354.25 187.438 351.261H197.041V348.258H186.537C185.683 345.402 184.809 342.492 183.928 339.563H193.891V336.56H183.027C182.153 333.657 181.279 330.748 180.418 327.865H190.741V324.862H179.511C178.623 321.906 177.742 318.997 176.895 316.167H187.592V313.165H175.987C175.073 310.128 174.192 307.212 173.358 304.47H184.435V301.467H172.444C172.331 301.093 172.217 300.713 172.104 300.339C171.296 297.67 170.542 295.161 169.841 292.772H181.286V289.769H168.967C168.06 286.639 167.252 283.743 166.545 281.074H178.143V278.071H165.764C164.944 274.841 164.276 271.965 163.762 269.376H175V266.373H163.209C161.507 256.244 162.508 251.079 165.704 246.608L163.262 244.86C156.656 254.102 158.471 265.426 168.44 298.551C158.838 306.605 139.473 325.109 131.165 333.104C138.285 307.893 131.679 290.35 126.167 281.147C117.185 266.16 101.27 256.471 85.6147 256.471V259.474C100.235 259.474 115.143 268.589 123.591 282.689C130.277 293.846 138.618 317.942 119.36 353.95C117.238 357.92 118.172 363.219 118.219 363.439L118.446 364.667H119.7C124.425 364.667 131.819 364.794 138.965 364.907C145.472 365.014 151.624 365.121 155.208 365.121C161.854 365.121 166.638 368.49 169.428 375.137C170.889 378.633 171.416 382.177 171.603 384.132H167.433C166.979 378.146 163.856 369.678 154.293 369.678V372.681C162.454 372.681 164.089 380.595 164.41 384.132H159.632C159.151 378.8 156.122 377.613 153.539 377.613V380.615C154.52 380.615 156.249 380.622 156.622 384.132H91.4937C83.2592 384.019 76.1991 380.575 72.5557 374.87C69.2125 369.638 69.0657 363.092 72.1486 356.446C79.6557 340.25 90.5461 315.006 90.6595 314.753L88.9512 314.019V313.985H88.8645L87.9036 313.572C87.9036 313.572 87.8302 313.738 87.7234 313.985H62.8331V316.988H86.4222C85.5013 319.11 84.2067 322.086 82.6853 325.556H62.8331V328.559H81.364C80.0161 331.622 78.548 334.952 77.0466 338.329V337.127H62.8331V340.13H76.2458C74.9579 343.013 73.6567 345.916 72.3955 348.698H62.8331V351.701H71.0275C70.4804 352.896 69.9398 354.063 69.426 355.191C68.6386 356.893 68.0447 358.588 67.631 360.269H62.8331V363.272H67.0838C66.5366 368.023 67.5109 372.561 70.0266 376.498C72.0685 379.701 75.0247 382.27 78.5747 384.092C67.3307 383.852 57.7082 379.428 49.9608 370.899C38.897 358.708 34.0924 340.057 35.1868 328.699L35.8407 321.973L32.4041 327.792C24.0629 341.905 22.8417 358.955 28.9675 375.797L29.0676 376.078C35.4203 393.554 42.6205 413.36 86.3821 449.161C113.808 471.595 135.502 490.8 152.245 511.567L152.251 511.607ZM150.343 160.486C155.021 160.413 159.091 160.359 161.087 160.359C162.174 160.359 162.648 160.64 162.768 160.766C162.628 161.08 161.58 161.934 159.031 161.934C155.868 161.934 153.226 161.3 150.35 160.493L150.343 160.486ZM31.897 375.09L31.7969 374.81C26.7855 361.03 26.9389 347.137 32.1239 335.025C32.8312 346.91 37.9094 362.124 47.7454 372.961C52.3698 378.053 57.7616 381.817 63.7206 384.192H35.3603C34.0657 381.049 32.9714 378.04 31.897 375.097V375.09ZM93.262 450.962C91.6271 449.614 89.9722 448.253 88.2906 446.878C54.9055 419.559 43.141 401.769 36.6415 387.188H91.507C91.6471 387.188 91.7873 387.202 91.9274 387.202H174.726V387.188H240.942L231.794 411.411C229.165 417.971 222.899 422.208 215.832 422.208H137.19V425.211H209.466C205.475 432.565 202.426 440.279 202.753 450.962H93.2687H93.262Z" fill="black"/>
<path d="M258.86 59.8236C258.826 59.6034 258.039 54.3517 254.215 49.0733C250.678 44.1887 243.792 38.3698 231.06 38.3698C207.537 38.3698 200.884 31.2097 192.456 22.1477C191.883 21.5338 191.302 20.9065 190.715 20.2793C181.059 10.0162 170.002 0 150.543 0C132.279 0 121.749 7.67396 110.605 15.8017C109.571 16.5557 108.537 17.3098 107.482 18.0705C105.981 19.1515 104.506 20.2459 103.025 21.347C92.4013 29.2345 82.3718 36.6816 65.5624 36.6816C64.4147 36.6816 64.0543 36.7082 63.6339 36.7349C62.9533 36.7816 62.0257 36.8484 56.5138 36.8484C26.4786 36.8484 18.6512 49.3603 17.37 59.8569L17.1631 61.5385H259.106L258.86 59.8236ZM20.6197 58.5357C23.062 46.304 35.4271 39.8512 56.5138 39.8512C62.1325 39.8512 63.1201 39.7845 63.8475 39.7311C64.2412 39.7044 64.5281 39.6844 65.5691 39.6844C83.3727 39.6844 94.2764 31.59 104.82 23.7559C106.288 22.6682 107.756 21.5739 109.244 20.5062C110.298 19.7454 111.346 18.9847 112.38 18.2307C123.117 10.4032 133.26 3.00953 150.55 3.00953C167.84 3.00953 177.295 10.4099 188.533 22.3412C189.12 22.9685 189.694 23.5824 190.261 24.1963C198.829 33.4118 206.236 41.3794 231.066 41.3794C249.157 41.3794 254.249 53.8646 255.516 58.5423H20.6197V58.5357Z" fill="black"/>
<path d="M289.662 546.787C287.854 542.236 286.005 537.565 284.177 532.713L285.638 529.791C289.182 522.704 292.632 509.892 291.824 498.514L291.537 494.43L289.115 497.727C284.577 503.919 281.748 520.255 282.749 528.843C282.615 528.483 282.482 528.129 282.349 527.762C280.353 522.223 278.652 517.059 277.237 512.207L277.811 511.06C281.354 503.973 284.804 491.161 283.997 479.783L283.71 475.699L281.288 478.996C277.818 483.727 275.349 494.377 274.821 502.972C273.287 496.312 272.399 490.3 272.159 484.781C276.049 478.989 279.059 465.269 278.518 455.547L278.225 450.262L275.702 454.913C265.833 473.083 266.907 493.79 279.519 528.763C281.928 535.449 284.437 541.762 286.859 547.868C296.729 572.738 306.051 596.234 306.051 638.194H309.054C309.054 595.66 299.632 571.911 289.649 546.76L289.662 546.787ZM288.848 505.221C288.494 511.106 287.213 516.999 285.612 521.876C285.945 516.204 287.233 509.918 288.848 505.221ZM281.027 486.503C280.667 492.388 279.392 498.281 277.784 503.159C278.118 497.493 279.406 491.194 281.027 486.503ZM275.362 462.914C274.875 468.159 273.687 473.484 272.252 477.601C272.613 472.323 273.654 467.491 275.362 462.914Z" fill="black"/>
<path d="M214.397 548.648C216.813 541.101 218.261 527.915 215.725 516.798L214.818 512.808L212.929 516.438C209.906 522.257 209.252 535.202 210.56 544.044C209.973 542.87 209.406 541.742 208.859 540.688C207.317 537.711 205.602 534.682 203.787 531.485L204.167 530.198C206.41 522.597 207.557 509.384 204.768 498.321L203.767 494.35L201.965 498.02C199.156 503.739 198.736 516.124 200.104 524.906C197.901 520.895 195.739 516.725 193.798 512.261C194.899 504.38 194.191 491.434 190.001 481.051L188.473 477.274L187.178 481.138C183.888 490.987 186.784 504.587 190.875 513.088C193.964 520.255 197.568 526.608 201.058 532.753C202.9 536.003 204.648 539.066 206.189 542.062C215.585 560.219 231.34 596.861 231.34 638.214H234.343C234.343 602.827 222.999 570.883 213.737 550.697L214.397 548.642V548.648ZM213.803 523.872C214.35 529.744 213.99 535.763 213.149 540.828C212.609 535.176 212.922 528.756 213.803 523.872ZM203.006 505.441C203.687 511.3 203.467 517.319 202.739 522.41C202.072 516.771 202.232 510.352 203.006 505.441ZM188.926 487.27C190.688 493.576 191.349 500.323 191.255 505.941C189.373 500.156 188.266 493.329 188.926 487.27Z" fill="black"/>
<path d="M154.5 137.17C154.113 137.17 153.706 137.157 153.292 137.15L151.624 137.124L151.577 140.126L153.246 140.153C155.501 140.187 157.463 140.22 159.171 140.22C166.578 140.22 169.228 139.659 170.549 136.463L171.043 135.275L163.989 130.998L154.5 137.17ZM166.965 136.316C165.944 136.997 163.963 137.197 159.939 137.217L164.049 134.548L166.972 136.316H166.965Z" fill="black"/>
<path d="M245.934 14.6806C247.856 14.5338 249.29 12.8588 249.143 10.9437C248.997 9.02186 247.322 7.58716 245.407 7.73397C243.485 7.88077 242.05 9.5557 242.197 11.4709C242.344 13.3927 244.019 14.8274 245.934 14.6806Z" fill="black"/>
<path d="M117.705 95.9579C117.852 97.8797 119.527 99.3144 121.442 99.1676C123.364 99.0208 124.799 97.3459 124.652 95.4307C124.505 93.5089 122.83 92.0742 120.915 92.221C118.993 92.3678 117.558 94.0428 117.705 95.9579Z" fill="black"/>
<path d="M40.0181 199.103C40.165 201.025 41.8399 202.459 43.755 202.312C45.6769 202.166 47.1116 200.491 46.9647 198.576C46.8179 196.654 45.143 195.219 43.2279 195.366C41.306 195.513 39.8713 197.188 40.0181 199.103Z" fill="black"/>
<path d="M245.707 293.873C243.785 294.02 242.35 295.695 242.497 297.61C242.644 299.532 244.319 300.966 246.234 300.819C248.156 300.673 249.591 298.998 249.444 297.083C249.297 295.161 247.622 293.726 245.707 293.873Z" fill="black"/>
<path d="M83.5594 567.6C81.6376 567.746 80.2029 569.421 80.3497 571.337C80.4965 573.258 82.1714 574.693 84.0866 574.546C86.0084 574.399 87.4431 572.725 87.2963 570.809C87.1495 568.888 85.4746 567.453 83.5594 567.6Z" fill="black"/>
</g>
<defs>
<clipPath id="clip0_30_46">
<rect width="309.061" height="644.753" fill="white"/>
</clipPath>
</defs>
</svg>
