<svg width="316" height="659" viewBox="0 0 316 659" fill="none" xmlns="http://www.w3.org/2000/svg">
<g clip-path="url(#clip0_30_62)">
<path d="M289.182 368.597C289.182 342.739 278.218 317.929 259.106 300.519L193.444 240.709V218.788C193.444 202.96 187.238 188.119 175.967 177.008C164.697 165.898 149.783 159.905 133.941 160.119L124.625 160.252H55.0991C31.5701 160.252 23.1821 175.72 23.1821 190.194V225.494L25.6244 223.546C27.2126 222.278 28.5872 221.077 29.8017 220.022C35.287 215.245 38.3098 212.609 49.8274 212.609H123.144V279.419C123.144 291.21 128.129 302.541 136.824 310.508L212.189 379.708H152.252C147.12 379.708 142.082 381.476 138.078 384.686L132.479 389.17L22.2612 388.162V402.776H167.746V413.9L175.514 406.179C176.541 405.158 177.435 404.011 178.176 402.77H245.861L217.66 472.643C215.392 478.849 216.272 485.802 220.016 491.247L276.55 573.525C282.762 582.687 286.239 587.632 286.439 587.919L289.182 591.909V390.411H289.175V368.617L289.182 368.597ZM279.059 571.844C277.718 569.868 276.256 567.706 274.668 565.344C262.296 546.947 264.839 524.359 265.926 514.716C268.002 496.285 279.352 403.764 280.814 391.893H286.186V582.214L279.059 571.844ZM234.576 482.392C237.239 474.845 250.478 433.679 258.392 409.082C260.861 401.408 262.857 395.209 263.931 391.893H269.637C268.756 396.043 267.581 401.642 266.22 408.135C260.114 437.242 249.891 485.962 246.101 500.656C243.812 509.511 244.446 517.445 246.708 524.752L236.518 509.925L236.545 509.911C231.707 502.918 230.973 492.628 234.583 482.392H234.576ZM248.997 501.403C252.807 486.649 263.037 437.883 269.149 408.749C270.584 401.922 271.805 396.09 272.699 391.886H277.791C276.163 405.152 264.999 496.105 262.943 514.376C262.116 521.709 260.488 536.27 264.839 551.144L261.689 546.56L261.709 546.546C252.367 533.013 244.366 519.38 249.004 501.41L248.997 501.403ZM190.435 218.781V242.03L257.078 302.734C275.569 319.577 286.172 343.58 286.172 368.59V388.883H226.642L194.118 359.021H211.354V356.018H190.848L176.468 342.819H211.354V339.816H173.198L161.674 329.24V326.617H211.354V323.614H161.674V310.415H211.354V307.412H161.674V294.213H211.354V291.21H161.674V278.011H205.682V275.008H161.674V260.187H187.859V257.184H161.674V242.364H175.707V239.361H161.674V224.54H175.707V221.537H161.674V206.716H175.707V203.714H161.674V196.654C161.674 186.737 158.324 177.729 152.238 171.283C148.995 167.846 145.091 165.217 140.661 163.442C153.159 164.743 164.75 170.188 173.839 179.15C184.536 189.694 190.421 203.774 190.421 218.795L190.435 218.781ZM126.133 163.729C139.64 163.849 150.056 170.222 155.181 180.645C150.917 190.741 139.566 191.922 126.133 192.069V163.729ZM26.1783 190.181C26.1783 170.322 41.1125 163.242 55.0925 163.242H123.131V192.076H58.6358C48.3994 192.076 39.551 195.045 33.0515 200.664C30.1354 203.18 27.8332 206.163 26.1783 209.459V190.174V190.181ZM49.8141 209.586C37.1687 209.586 33.4452 212.829 27.8132 217.74C27.3461 218.147 26.8723 218.561 26.3852 218.975C28.1268 204.748 40.8923 195.085 58.6358 195.085H123.131V209.586H49.8141ZM126.133 279.399V195.072C139.112 194.925 151.057 193.744 156.696 184.295C157.984 188.025 158.678 192.169 158.678 196.647V326.49L138.845 308.28C130.771 300.879 126.133 290.356 126.133 279.406V279.399ZM25.2574 399.747V391.165L128.769 392.106L128.569 392.266L135.309 392.166H135.349L167.74 391.692V399.74H25.2641L25.2574 399.747ZM173.392 404.031L170.742 406.66V388.649L137.277 389.137L139.94 387.001C143.416 384.219 147.781 382.684 152.238 382.684H215.445L222.185 388.87H177.689V393.688C177.689 397.545 176.121 401.308 173.385 404.024L173.392 404.031ZM179.604 399.747C180.312 397.818 180.692 395.763 180.692 393.688V391.873H225.454L225.468 391.886H250.238L247.068 399.747H179.604ZM220.463 473.697L253.481 391.886H260.761C259.634 395.369 257.779 401.148 255.523 408.161C247.616 432.745 234.39 473.884 231.734 481.391C229.492 487.757 228.818 494.163 229.652 499.949L222.485 489.525C219.289 484.881 218.541 478.949 220.456 473.704L220.463 473.697Z" fill="black"/>
<path d="M288.641 126.881C288.701 126.594 290.063 119.867 285.145 113.788C280.207 107.689 270.938 104.593 257.592 104.593C239.107 104.593 229.505 95.4576 219.335 85.7884C217.967 84.4872 216.559 83.1459 215.138 81.8447C207.204 74.5644 195.94 66.2031 179.15 66.2031C160.993 66.2031 151.017 74.0906 141.375 81.7179C140.547 82.3718 139.72 83.0258 138.892 83.6731C128.355 91.8942 116.464 100.035 97.2125 101.463C91.8941 101.857 80.877 101.77 71.1544 101.697C67.4375 101.67 63.8808 101.644 60.8312 101.644C31.1964 101.644 23.4824 115.103 22.2279 126.4L22.041 128.069H288.394L288.648 126.881H288.641ZM285.839 125.066H25.4376C27.7731 111.513 39.6644 104.653 60.8246 104.653C63.8675 104.653 67.4175 104.68 71.121 104.706C80.9037 104.78 91.9875 104.867 97.426 104.466C117.512 102.978 129.83 94.5501 140.734 86.0487C141.575 85.3947 142.402 84.7408 143.236 84.0801C152.905 76.4329 162.041 69.2127 179.15 69.2127C194.912 69.2127 205.576 77.1469 213.109 84.0601C214.504 85.3413 215.912 86.6759 217.267 87.9705C227.416 97.6197 237.906 107.602 257.592 107.602C269.95 107.602 278.425 110.305 282.776 115.637C285.732 119.26 285.952 123.157 285.845 125.072L285.839 125.066Z" fill="black"/>
<path d="M79.0419 64.9818C96.959 64.9818 111.533 50.4079 111.533 32.4909C111.533 14.5739 96.959 0 79.0419 0C61.1249 0 46.551 14.5739 46.551 32.4909C46.551 50.4079 61.1249 64.9818 79.0419 64.9818ZM79.0419 3.00286C95.3041 3.00286 108.53 16.2288 108.53 32.4909C108.53 48.753 95.3041 61.9789 79.0419 61.9789C62.7798 61.9789 49.5539 48.753 49.5539 32.4909C49.5539 16.2288 62.7798 3.00286 79.0419 3.00286Z" fill="black"/>
<path d="M170.976 575.334L171.083 573.032C171.083 572.932 171.543 562.822 170.229 550.183C168.46 533.12 164.497 519.781 158.451 510.532C153.833 503.472 147.454 495.445 140.36 487.417C141.041 487.797 141.728 488.171 142.422 488.538C151.13 493.122 163.155 494.25 172.871 494.25C181.86 494.25 188.88 493.283 189.467 493.202L191.749 492.882L190.535 490.927C189.907 489.919 175 466.183 157.463 459.01C151.905 456.734 145.158 454.619 138.078 452.791C150.236 450.956 163.242 439.685 163.816 439.184L165.511 437.696L163.482 436.702C162.775 436.355 146.019 428.254 133.56 430.416C121.969 432.425 104.92 440.479 95.9313 445.837C86.9561 440.486 69.8865 432.438 58.1821 430.416C45.7236 428.261 28.9676 436.355 28.2603 436.702L26.2317 437.696L27.9266 439.184C28.5005 439.685 41.4996 450.956 53.6578 452.791C46.5777 454.619 39.838 456.734 34.2793 459.01C16.7427 466.19 1.83516 489.919 1.2079 490.927L-0.0065918 492.882L2.27558 493.209C2.82944 493.289 9.25555 494.17 17.6502 494.17C27.1192 494.17 39.0973 493.042 47.979 488.364L49.3604 487.637C50.5148 487.037 51.7159 486.403 52.9438 485.729C45.2565 494.31 38.2898 502.978 33.3518 510.532C27.306 519.781 23.3423 533.12 21.5739 550.183C20.2593 562.822 20.7131 572.932 20.7198 573.032L20.8266 575.334L22.8885 574.306C22.9819 574.26 32.0239 569.729 42.4271 562.428C56.4671 552.566 66.183 542.603 71.3146 532.82C71.9485 531.606 72.6225 530.278 73.3031 528.85C72.7092 533.561 72.2888 538.038 72.0886 542.136C70.7207 570.616 93.6625 606.157 94.6434 607.658L95.898 609.586L97.1525 607.658C98.1267 606.157 121.075 570.616 119.707 542.136C119.514 538.045 119.093 533.574 118.499 528.876C119.173 530.298 119.841 531.612 120.475 532.82C125.606 542.609 135.322 552.572 149.362 562.428C159.765 569.735 168.807 574.266 168.901 574.306L170.963 575.334H170.976ZM155.935 512.174C166.705 528.65 168.08 556.069 168.147 567.56L101.043 453.351C109.137 459.857 119.013 469.059 128.509 478.962C128.509 478.962 128.556 479.009 128.576 479.022C139.232 490.153 149.389 502.144 155.942 512.167L155.935 512.174ZM143.817 485.875C139.533 483.62 135.629 481.198 130.531 476.753C122.617 468.499 114.436 460.738 107.229 454.586L183.742 490.767C174.579 491.501 155.601 492.081 143.817 485.875ZM184.896 487.991L103.545 449.521C108.87 450.028 115.096 450.942 121.562 452.163L121.542 452.31C122.17 452.404 122.87 452.484 123.584 452.557C135.175 454.846 147.314 458.096 156.309 461.779C168.46 466.751 179.671 480.731 184.889 487.991H184.896ZM109.377 447.172L157.47 440.319C152.412 443.996 143.777 449.407 136.15 449.988C133.687 450.175 128.129 450.008 123.945 449.581C118.886 448.587 113.928 447.766 109.384 447.172H109.377ZM134.068 433.366C141.688 432.051 151.477 435.094 157.263 437.316L103.712 444.943C112.807 440.205 125.146 434.907 134.074 433.366H134.068ZM57.6616 433.366C66.6768 434.927 79.0486 440.219 88.1372 444.943L34.4662 437.309C40.245 435.087 50.0343 432.044 57.6616 433.359V433.366ZM56.3203 450.041L55.5796 449.988C47.9457 449.414 39.3175 443.996 34.2527 440.319L82.3784 447.159C77.0801 447.853 71.2345 448.847 65.3022 450.075C61.7788 450.462 58.6892 450.228 56.307 450.041H56.3203ZM35.4204 461.773C43.7951 458.343 54.8856 455.293 65.7159 453.044C66.7169 452.931 67.7445 452.791 68.8055 452.57L68.7788 452.424C75.7855 451.056 82.5586 450.048 88.2774 449.508L6.83992 487.991C12.0582 480.731 23.2689 466.751 35.4271 461.773H35.4204ZM61.2517 476.713C56.5605 480.477 52.1964 482.759 47.9724 484.961L46.5844 485.689C34.92 491.834 16.9028 491.414 8.02104 490.747L84.5872 454.566C77.3737 460.718 69.1926 468.486 61.2717 476.74L61.2517 476.713ZM35.8742 512.16C48.2727 493.196 73.5634 467.164 90.7664 453.338L23.6626 567.546C23.7293 556.056 25.0973 528.643 35.8809 512.16H35.8742ZM68.6587 531.405C59.5234 548.835 36.2612 563.396 26.2517 569.061L88.284 463.488C83.5862 477.774 78.9285 495.905 75.7988 512.928C74.0171 520.602 71.0743 526.794 68.6587 531.405ZM75.0982 542.262C75.4986 533.941 76.8131 524.058 78.6949 513.755C78.8284 513.175 78.9618 512.581 79.0886 511.98L79.0286 511.967C82.8722 491.528 88.8646 469.693 94.4099 455.14V601.452C92.1611 597.602 88.8379 591.583 85.5948 584.456C80.4299 573.105 74.4109 556.576 75.1048 542.256L75.0982 542.262ZM116.724 542.262C117.412 556.583 111.399 573.112 106.234 584.463C102.985 591.596 99.6615 597.622 97.4127 601.472V455.14C102.951 469.693 108.95 491.528 112.801 511.967L112.734 511.98C112.867 512.621 113.008 513.242 113.154 513.862C115.029 524.132 116.331 533.968 116.731 542.262H116.724ZM123.151 531.405C120.748 526.821 117.819 520.662 116.037 513.041C112.907 495.985 108.243 477.808 103.532 463.488L165.558 569.055C155.555 563.389 132.286 548.835 123.151 531.399V531.405Z" fill="black"/>
<path d="M35.7407 353.883C45.2431 358.527 53.6644 361.057 60.7712 361.397C62.4528 361.477 64.2411 361.517 66.1229 361.517C82.8188 361.517 106.208 358.481 117.525 355.391L121.375 354.337L121.536 354.404L120.421 351.281C114.756 335.452 97.3393 304.71 83.3793 288.808C77.427 282.021 67.8045 275.989 54.7855 270.871C45.1496 267.081 37.3689 265.285 37.0419 265.212L34.7998 264.698L35.2335 266.96C35.3003 267.287 36.8284 275.135 40.2917 284.884C44.9695 298.063 50.6816 307.879 57.2545 314.065C70.0266 326.063 92.895 340.764 109.257 348.985C96.2115 344.007 76.9666 338.508 63.8207 336.82C56.7874 335.913 47.9189 336.914 37.4557 339.796C29.715 341.925 24.0896 344.287 23.8561 344.387L21.3003 345.468L23.5958 347.017C23.8027 347.157 28.7007 350.446 35.734 353.883H35.7407ZM81.1172 290.79C92.9951 304.316 107.402 328.732 114.696 345.175L41.5596 269.543C51.0152 272.312 70.9809 279.252 81.1105 290.79H81.1172ZM39.3975 271.618L112.54 347.263C96.345 339.416 72.4222 324.195 59.3098 311.876C48.1125 301.36 41.8532 281.154 39.3975 271.618ZM63.4337 339.796C77.9475 341.665 100.015 348.244 112.52 353.523C98.9541 356.506 75.6053 359.108 60.9113 358.401C48.2659 357.793 33.5119 349.586 27.7531 346.089C34.2192 343.687 50.8417 338.175 63.427 339.796H63.4337Z" fill="black"/>
<path d="M241.89 638.981C231.72 635.191 222.965 633.416 215.892 633.696C199.677 634.343 173.859 639.875 161.607 644.353C177.596 637.647 206.403 619.876 221.364 605.823C227.944 599.644 233.649 589.828 238.327 576.642C241.79 566.886 243.325 559.045 243.385 558.718L243.819 556.456L241.577 556.97C241.25 557.043 233.462 558.838 223.833 562.629C210.814 567.747 201.198 573.779 195.239 580.566C181.273 596.467 163.863 627.21 158.197 643.038L157.116 646.055L157.016 646.095L157.09 646.121L157.076 646.161L157.136 646.135L160.76 647.476C172.998 652.007 200.124 657.779 216.76 658.446C217.247 658.466 217.747 658.473 218.248 658.473C225.061 658.473 233.162 656.685 242.357 653.155C249.664 650.345 254.836 647.503 255.056 647.383L257.478 646.041L255.029 644.74C254.802 644.62 249.411 641.777 241.883 638.975L241.89 638.981ZM219.309 603.641C206.19 615.966 182.267 631.18 166.078 639.028L239.221 563.389C236.772 572.925 230.506 593.124 219.315 603.641H219.309ZM197.501 582.554C207.631 571.017 227.61 564.077 237.059 561.301L163.916 636.939C171.216 620.497 185.617 596.08 197.495 582.554H197.501ZM216.886 655.457C202.179 654.87 179.157 650.225 165.905 646.061C178.824 641.911 201.385 637.293 216.012 636.706C228.711 636.205 244.766 643.145 250.999 646.108C244.953 649.091 229.532 655.971 216.886 655.457Z" fill="black"/>
<path d="M253.568 169.048C239.601 184.949 222.191 215.692 216.526 231.52L215.412 234.643L218.495 233.422C234.136 227.223 264.271 208.785 279.693 194.305C286.272 188.126 291.978 178.31 296.656 165.124C300.119 155.368 301.654 147.527 301.714 147.2L302.147 144.938L299.905 145.452C299.578 145.525 291.791 147.32 282.162 151.111C269.143 156.229 259.527 162.268 253.568 169.048ZM255.823 171.029C265.953 159.492 285.925 152.552 295.374 149.783L222.238 225.421C229.538 208.979 243.939 184.562 255.817 171.029H255.823ZM277.631 192.116C264.512 204.435 240.596 219.656 224.4 227.503L297.543 151.858C295.094 161.387 288.835 181.593 277.631 192.116Z" fill="black"/>
<path d="M313.425 233.943C313.198 233.822 307.826 230.94 300.319 228.09C290.176 224.233 281.434 222.405 274.354 222.638C257.752 223.192 231.04 228.798 219.142 233.249L215.398 234.65L219.135 236.065C231.34 240.676 258.426 246.628 275.062 247.402C275.635 247.429 276.216 247.442 276.81 247.442C283.57 247.442 291.591 245.707 300.693 242.284C308.02 239.528 313.211 236.712 313.425 236.592L315.86 235.264L313.418 233.949L313.425 233.943ZM275.208 244.393C260.508 243.712 237.513 238.914 224.293 234.663C237.239 230.593 259.834 226.128 274.461 225.635C287.14 225.208 303.175 232.268 309.388 235.271C303.328 238.213 287.874 244.98 275.215 244.393H275.208Z" fill="black"/>
<path d="M37.0618 635.458C35.14 635.604 33.7053 637.279 33.8521 639.194C33.9989 641.116 35.6739 642.551 37.589 642.404C39.5108 642.257 40.9455 640.582 40.7987 638.667C40.6519 636.745 38.977 635.311 37.0618 635.458Z" fill="black"/>
<path d="M132.766 607.191C130.844 607.338 129.41 609.013 129.556 610.928C129.703 612.85 131.378 614.284 133.293 614.138C135.215 613.991 136.65 612.316 136.503 610.401C136.356 608.479 134.681 607.044 132.766 607.191Z" fill="black"/>
<path d="M267.394 611.735C265.473 611.882 264.038 613.557 264.185 615.472C264.331 617.394 266.006 618.828 267.922 618.682C269.843 618.535 271.278 616.86 271.131 614.945C270.984 613.023 269.31 611.588 267.394 611.735Z" fill="black"/>
<path d="M192.783 450.562C192.637 448.64 190.962 447.205 189.046 447.352C187.131 447.499 185.69 449.174 185.837 451.089C185.984 453.011 187.658 454.446 189.574 454.299C191.495 454.152 192.93 452.477 192.783 450.562Z" fill="black"/>
<path d="M92.121 242.537C91.9742 240.616 90.2993 239.181 88.3841 239.328C86.4623 239.475 85.0276 241.149 85.1744 243.065C85.3212 244.986 86.9961 246.421 88.9113 246.274C90.8331 246.128 92.2678 244.453 92.121 242.537Z" fill="black"/>
<path d="M137.724 175.36C135.802 175.507 134.368 177.182 134.514 179.097C134.661 181.019 136.336 182.453 138.251 182.307C140.173 182.16 141.608 180.485 141.461 178.57C141.314 176.648 139.639 175.213 137.724 175.36Z" fill="black"/>
<path d="M208.398 167.446C208.545 169.368 210.22 170.802 212.135 170.656C214.057 170.509 215.492 168.834 215.345 166.919C215.198 164.997 213.523 163.562 211.608 163.709C209.686 163.856 208.251 165.531 208.398 167.446Z" fill="black"/>
<path d="M254.789 62.059C256.711 61.9122 258.145 60.2373 257.999 58.3221C257.852 56.4003 256.177 54.9656 254.262 55.1124C252.34 55.2592 250.905 56.9341 251.052 58.8493C251.199 60.7711 252.874 62.2058 254.789 62.059Z" fill="black"/>
</g>
<defs>
<clipPath id="clip0_30_62">
<rect width="315.867" height="658.48" fill="white"/>
</clipPath>
</defs>
</svg>
