<svg width="278" height="700" viewBox="0 0 278 700" fill="none" xmlns="http://www.w3.org/2000/svg">
<g clip-path="url(#clip0_30_82)">
<path d="M121.215 79.9627C143.263 79.9627 161.2 62.0257 161.2 39.978C161.2 17.9304 143.263 0 121.215 0C99.1675 0 81.2305 17.9371 81.2305 39.9847C81.2305 62.0323 99.1675 79.9694 121.215 79.9694V79.9627ZM121.215 3.00286C141.608 3.00286 158.197 19.592 158.197 39.9847C158.197 60.3774 141.608 76.9665 121.215 76.9665C100.822 76.9665 84.2333 60.3774 84.2333 39.9847C84.2333 19.592 100.829 3.00286 121.215 3.00286Z" fill="black"/>
<path d="M253.855 74.9112C251.94 74.8311 249.998 74.9112 248.023 75.1514C227.983 76.8464 205.709 87.2963 179.831 99.4412C123.544 125.866 88.9846 113.521 73.3965 103.819C54.7054 92.1809 43.3145 72.1819 42.9141 50.3145L39.9113 50.3678C40.325 73.2563 52.2497 94.1895 71.8083 106.368C80.7368 111.926 95.671 118.339 117.018 118.339C134.168 118.339 155.461 114.202 181.112 102.164C190.795 97.6194 199.963 93.3153 208.685 89.6318C203.861 92.281 198.742 95.3106 193.27 98.7405C190.521 100.469 187.879 102.124 185.343 103.725C145.638 128.689 130.784 138.031 94.6567 140.68C74.5909 142.155 56.5004 137.417 42.3269 126.987C30.3022 118.139 23.2821 106.768 20.7197 99.0808L17.8703 100.028C19.1849 103.972 24.7035 117.745 40.5452 129.403C53.5509 138.972 69.6863 143.943 87.5633 143.943C89.9655 143.943 92.4079 143.857 94.8702 143.67C131.739 140.967 146.773 131.518 186.931 106.261C189.467 104.666 192.103 103.005 194.859 101.283C202.106 96.7386 208.732 92.9016 214.824 89.7386C201.979 98.3068 188.433 109.678 174.519 121.349C164.65 129.63 154.447 138.198 144.05 146.172C122.403 162.775 96.7987 171.957 71.9417 172.037C71.835 172.037 71.7349 172.037 71.6281 172.037C48.0123 172.037 27.6129 163.522 15.6349 148.648L13.2993 150.53C25.8513 166.111 47.0981 175.033 71.6281 175.033C71.7349 175.033 71.8416 175.033 71.9484 175.033C97.4593 174.953 123.711 165.544 145.879 148.548C156.329 140.534 166.558 131.945 176.448 123.644C202.192 102.03 226.662 81.5041 247.095 78.3144C248.083 78.1943 249.057 78.1009 250.011 78.0408C250.371 78.0208 250.738 78.0008 251.099 77.9874C251.172 77.9874 251.252 77.9808 251.326 77.9741C251.452 77.9741 251.586 77.9741 251.713 77.9607C252.086 77.9541 252.453 77.9407 252.82 77.9407C260.835 77.834 268.435 79.3421 275.709 82.9788L277.05 80.2896C269.61 76.5661 261.902 74.9379 253.841 74.8978L253.855 74.9112Z" fill="black"/>
<path d="M260.935 120.568L231.42 122.096L224.954 142.482C222.979 148.708 219.595 154.527 215.171 159.325L160.339 218.721C158.504 220.703 157.016 222.939 155.881 225.328C146.866 219.989 123.871 209.299 104.746 202.206C79.2686 192.75 54.8721 188.773 41.079 191.816C34.7263 193.217 32.9112 196.32 32.5108 198.675C31.4565 204.901 38.8035 213.383 52.67 221.958C72.1152 233.982 113.134 257.038 121.862 261.936C111.439 273.313 103.405 285.084 93.342 299.832C91.4669 302.574 89.525 305.43 87.4764 308.407C74.4374 327.358 57.1543 356.546 48.8464 387.962C46.671 396.19 48.9465 404.051 54.3783 407.067C55.7396 407.828 57.201 408.195 58.6891 408.195C61.8054 408.195 65.0818 406.573 68.0046 403.477C83.2257 387.335 114.095 352.589 135.502 328.345V370.499C135.502 404.418 138.091 435.768 169.781 475.812C170.816 477.3 171.877 478.695 172.978 479.97L173.011 479.943C175.941 483.733 179.33 488.264 182.921 493.129C183.661 494.203 184.435 495.264 185.256 496.305C188.152 500.249 191.135 504.353 194.071 508.423C194.538 509.137 195.025 509.845 195.539 510.565L195.593 510.532C207.818 527.502 218.861 543.256 219.042 543.517C219.996 544.951 220.356 546.68 220.063 548.381C219.615 550.95 218.574 552.752 214.798 553.793L214.724 553.813C213.957 554.067 137.591 579.217 112.6 587.398C104.553 590.034 98.954 593.765 97.7595 603.407L97.7462 608.632L172.984 610.721L167.96 698.224L169.107 698.557C170.262 698.898 171.436 699.058 172.584 699.058C176.948 699.058 181.059 696.722 183.281 692.732L249.517 573.439C258.312 557.603 273.06 523.411 273.06 472.362L274.641 217.08C274.641 216.252 274.668 214.964 274.701 213.303C275.041 196.36 276.076 144.798 261.375 121.329L260.908 120.581L260.935 120.568ZM162.548 220.756L217.38 161.36C222.104 156.242 225.715 150.029 227.823 143.383L233.662 124.979L242.023 124.545L236.712 146.646C235.444 153.139 232.401 159.145 227.91 164.003L171.983 224.634C168.727 228.164 166.939 232.748 166.939 237.552V247.008H156.349V236.625C156.349 230.726 158.551 225.087 162.554 220.75L162.548 220.756ZM35.4803 199.169C35.9274 196.547 39.1238 195.312 41.7329 194.738C54.9922 191.809 78.7415 195.753 103.705 205.015C122.67 212.055 146.292 223.045 154.734 228.137C153.813 230.846 153.332 233.709 153.332 236.632V247.048C142.215 247.408 131.658 251.953 123.991 259.68C116.931 255.723 74.1905 231.727 54.2515 219.395C42.0399 211.841 34.6662 203.907 35.4737 199.169H35.4803ZM138.518 370.499V324.942C143.677 319.097 148.154 314.012 151.551 310.148V402.016C151.551 416.142 153.366 431.197 156.656 444.416C157.883 449.347 159.305 453.958 160.9 458.222C140.413 426.152 138.525 399.26 138.525 370.492L138.518 370.499ZM271.725 213.223C271.692 214.918 271.665 216.219 271.665 217.053L270.083 472.336C270.083 522.724 255.57 556.382 246.921 571.964L180.685 691.257C178.763 694.721 174.946 696.536 171.129 695.922L176.187 607.798L100.776 605.709V603.687C101.53 597.728 103.952 593.404 113.561 590.255C138.345 582.14 213.663 557.33 215.652 556.676C220.029 555.461 222.311 553.059 223.039 548.895C223.466 546.433 222.945 543.937 221.544 541.822C221.344 541.535 209.379 524.472 196.56 506.708C187.091 492.335 187.125 479.242 187.171 464.201C187.171 463.14 187.171 462.073 187.171 460.992V328.999H184.168V460.992C184.168 462.066 184.168 463.134 184.168 464.188C184.135 474.211 184.108 483.873 187.131 493.743C186.397 492.742 185.67 491.754 184.949 490.78C178.083 480.75 171.236 464.562 171.236 431.944V291.904H168.233V431.944C168.233 445.744 169.174 462.139 174.799 477.307C173.985 476.259 173.211 475.272 172.484 474.358C172.391 474.244 172.304 474.124 172.21 474.011C160.052 456.447 154.567 425.958 154.567 402.016V306.732C156.956 304.016 158.344 302.427 158.444 302.314C162.381 297.616 164.55 291.651 164.55 285.525C164.55 282.055 167.372 279.239 170.836 279.239H174.092V276.236H170.836C165.711 276.236 161.547 280.407 161.547 285.525C161.547 290.95 159.625 296.228 156.162 300.359C155.508 301.106 90.3392 375.424 65.8425 401.408C62.4727 404.985 58.8292 406.086 55.853 404.438C52.283 402.456 49.7339 396.417 51.7692 388.723C59.9636 357.72 77.0665 328.859 89.9655 310.101C92.0208 307.119 93.9626 304.263 95.8377 301.513C106.241 286.265 114.462 274.221 125.366 262.57C132.84 254.589 143.556 250.011 154.767 250.011H169.942V247.008V237.552C169.942 233.509 171.45 229.645 174.192 226.669L230.119 166.038C234.983 160.766 238.28 154.26 239.641 147.28L242.45 135.609V165.544C242.45 170.248 240.655 174.713 237.386 178.123L188.953 229.705C185.356 233.302 183.374 238.086 183.374 243.178V249.924H186.377V243.178C186.377 238.894 188.045 234.857 191.115 231.794L239.568 180.191C240.682 179.03 241.643 177.762 242.457 176.408V198.162C242.284 199.79 241.576 201.305 240.409 202.486L208.725 234.736C205.422 238.213 203.6 242.771 203.6 247.569V250.031H206.603V247.569C206.603 243.545 208.131 239.721 210.887 236.825L242.45 204.701C242.324 216.025 238.133 226.896 230.586 235.357L220.703 246.441C215.885 251.846 213.236 258.813 213.236 266.053V303.909C213.236 308.353 214.751 312.731 217.493 316.227L221.397 321.192L223.759 319.337L219.856 314.372C217.52 311.403 216.239 307.686 216.239 303.909V266.053C216.239 259.553 218.621 253.294 222.945 248.443L232.828 237.359C240.976 228.217 245.46 216.439 245.46 204.194V198.315C245.487 198.008 245.507 197.695 245.507 197.381V191.435H245.46V124.365L259.333 123.651C268.455 138.965 272.632 169.087 271.745 213.223H271.725Z" fill="black"/>
<path d="M27.4594 641.177C22.0143 625.815 22.6148 607.124 29.2411 585.617C34.7397 567.78 44.3889 547.941 57.9151 526.648C79.5823 492.555 106.882 461.799 120.108 448.467C120.481 448.1 120.848 447.719 121.215 447.346C121.275 447.286 121.335 447.226 121.395 447.172C123.21 445.297 124.972 443.335 126.667 441.273L124.345 439.365C122.663 441.413 120.908 443.362 119.1 445.217C117.452 446.818 115.697 448.48 113.835 450.175C95.5308 466.03 72.4289 472.443 50.8283 467.018C29.5815 461.679 14.367 445.724 10.143 424.344L7.20018 424.924C11.6578 447.479 27.6997 464.302 50.101 469.934C55.4194 471.268 60.8245 471.922 66.2296 471.922C75.5252 471.922 84.8207 469.987 93.6691 466.29C84.4269 472.643 74.1171 478.302 63.2868 481.778C39.7445 489.346 19.1515 484.828 2.08198 468.352L0 470.514C12.3117 482.399 26.3584 488.358 41.9466 488.358C49.0533 488.358 56.4804 487.117 64.2077 484.634C73.5099 481.645 82.4184 477.107 90.6128 471.902C84.1667 477.481 77.08 483.286 69.6596 488.792C43.3612 508.29 20.9866 518.18 3.15633 518.18V521.183C21.6473 521.183 44.6291 511.093 71.4546 491.201C79.4489 485.275 87.0428 479.009 93.8759 473.05C81.5909 487.671 67.6043 505.828 55.3927 525.04C41.7197 546.56 31.9571 566.639 26.3784 584.736C19.5586 606.871 18.9714 626.196 24.6301 642.184C29.5081 655.957 46.0171 670.545 68.1181 671.792L68.2849 668.796C52.9303 667.935 33.4051 657.959 27.4594 641.183V641.177Z" fill="black"/>
<path d="M155.308 527.021C155.161 525.1 153.486 523.665 151.571 523.812C149.649 523.958 148.214 525.633 148.361 527.549C148.508 529.47 150.183 530.905 152.098 530.758C154.02 530.611 155.454 528.937 155.308 527.021Z" fill="black"/>
<path d="M129.089 649.104C127.167 649.251 125.733 650.926 125.879 652.841C126.026 654.763 127.701 656.198 129.616 656.051C131.538 655.904 132.973 654.229 132.826 652.314C132.679 650.392 131.004 648.957 129.089 649.104Z" fill="black"/>
<path d="M262.977 637.206C261.055 637.353 259.62 639.028 259.767 640.943C259.914 642.865 261.589 644.3 263.504 644.153C265.426 644.006 266.861 642.331 266.714 640.416C266.567 638.494 264.892 637.059 262.977 637.206Z" fill="black"/>
<path d="M235.918 266.066C233.996 266.213 232.561 267.888 232.708 269.803C232.855 271.725 234.53 273.16 236.445 273.013C238.367 272.866 239.802 271.191 239.655 269.276C239.508 267.361 237.833 265.92 235.918 266.066Z" fill="black"/>
<path d="M179.157 160.179C179.01 158.257 177.335 156.823 175.42 156.969C173.498 157.116 172.064 158.791 172.211 160.706C172.357 162.628 174.032 164.063 175.947 163.916C177.869 163.769 179.304 162.094 179.157 160.179Z" fill="black"/>
<path d="M53.5644 278.265C53.4176 276.343 51.7426 274.908 49.8275 275.055C47.9056 275.202 46.4709 276.877 46.6178 278.792C46.7646 280.714 48.4395 282.148 50.3546 282.002C52.2765 281.855 53.7112 280.18 53.5644 278.265Z" fill="black"/>
</g>
<defs>
<clipPath id="clip0_30_82">
<rect width="277.057" height="699.058" fill="white"/>
</clipPath>
</defs>
</svg>
