<svg width="296" height="656" viewBox="0 0 296 656" fill="none" xmlns="http://www.w3.org/2000/svg">
<g clip-path="url(#clip0_30_96)">
<path d="M215.145 61.3383C232.054 61.3383 245.814 47.5786 245.814 30.6692C245.814 13.7598 232.054 0 215.145 0C198.235 0 184.476 13.7598 184.476 30.6692C184.476 47.5786 198.235 61.3383 215.145 61.3383ZM215.145 3.00286C230.399 3.00286 242.811 15.4147 242.811 30.6692C242.811 45.9237 230.399 58.3355 215.145 58.3355C199.89 58.3355 187.478 45.9237 187.478 30.6692C187.478 15.4147 199.89 3.00286 215.145 3.00286Z" fill="black"/>
<path d="M289.061 472.316V448.173H258.599C262.176 445.464 264.498 441.166 264.498 436.342V411.011C264.498 403.063 261.522 395.476 256.13 389.644L223.926 354.55C227.363 343.627 225.247 328.933 218.761 315.7C221.617 313.852 229.004 308.613 233.515 301.14C238.794 292.398 239.674 280.487 235.904 270.297C241.436 269.143 246.554 266.14 250.465 261.695C254.308 257.331 256.597 251.993 256.597 247.422V235.491L255.803 235.063C255.636 234.977 239.334 226.042 239.334 209.339C239.334 204.421 239.468 200.891 239.561 198.309C239.608 197.081 239.641 196.06 239.654 195.186L248.049 187.205V186.557C248.049 178.396 243.064 168.6 235.037 160.993C225.508 151.958 212.782 146.986 199.203 146.986C190.147 146.986 180.712 149.035 172.637 152.759C163.555 156.943 156.375 163.148 151.791 170.729L140.72 170.696C140.68 170.696 140.647 170.696 140.607 170.696C130.304 170.696 120.615 174.699 113.314 181.98C110.485 184.802 108.156 187.985 106.348 191.422L106.314 191.402L50.1142 306.258C49.1199 308.286 48.0789 310.348 47.0112 312.47C37.2419 331.849 25.077 355.965 25.077 403.444C25.077 411.598 26.0646 427.4 32.0236 448.173H19.1113V298.083C19.1113 292.098 19.6786 286.172 20.813 280.286C24.2429 266.046 36.7081 256.497 48.7862 247.262C56.954 241.009 64.6747 235.103 69.2057 228.023C75.8253 217.68 76.7729 206.843 71.5746 201.071C67.2104 196.227 59.4831 196.073 50.3744 200.644C29.8015 210.967 23.6023 246.835 19.1047 273.18V230.272C19.1047 218.381 22.955 210.093 27.0322 201.325C30.3687 194.145 33.8187 186.717 34.8597 177.289C36.261 164.57 33.9655 153.372 28.7138 147.353C25.791 143.997 22.0742 142.235 17.67 142.108H17.5832C13.179 142.235 9.46217 143.997 6.53939 147.353C1.2944 153.379 -1.00112 164.57 0.400216 177.289C1.43453 186.711 4.87781 194.138 8.20097 201.311C12.2248 209.993 16.0151 218.201 16.0951 229.899L16.1085 472.316H40.5317C44.9025 482.772 50.4878 493.983 57.6146 505.748C62.0322 513.034 66.6232 520.255 71.0607 527.235C88.3906 554.494 104.753 580.238 104.753 600.678C104.753 618.628 91.1999 631.16 71.7881 631.16C56.4068 631.16 40.505 619.209 40.505 599.216C40.445 592.603 35.1466 587.238 28.6538 587.238C22.1609 587.238 16.8625 592.597 16.8025 599.216V599.337C16.8692 630.219 42.0131 655.323 72.9092 655.323C87.9301 655.323 102.03 649.724 112.62 639.568C123.27 629.345 129.136 615.665 129.136 601.038C129.136 574.246 110.458 545.258 93.9825 519.681C89.3581 512.507 84.994 505.728 81.4173 499.542C75.9721 490.113 71.2343 481.198 67.3572 472.322H289.068L289.061 472.316ZM286.059 451.176V469.313H163.162V451.176H286.059ZM230.299 406.086V434.98H227.183C224.16 434.98 221.317 436.161 219.182 438.303C217.046 440.445 215.878 443.288 215.892 446.311V448.173H163.162V437.95C163.162 428.367 155.361 420.567 145.778 420.567H134.541L196.2 383.778L230.306 406.086H230.299ZM221.537 351.961L155.995 280.547C178.269 280.58 197.287 289.789 209.799 306.705C220.189 320.745 224.807 338.902 221.537 351.961ZM250.138 234.89H244.012V237.893H253.588V246.014H229.018V249.017H253.474C252.533 256.07 245.6 265.519 234.73 267.474C233.155 263.898 231.48 260.368 229.845 256.951C222.698 241.99 215.945 227.85 219.362 211.788C221.377 202.306 227.636 196.667 236.625 196.093C236.605 196.72 236.578 197.414 236.551 198.202C236.451 200.804 236.325 204.374 236.325 209.346C236.325 222.271 244.793 230.799 250.138 234.897V234.89ZM199.203 149.996C212.015 149.996 224.006 154.68 232.975 163.182C240.095 169.935 244.773 178.783 245.04 185.93L237.559 193.044C226.522 193.277 218.841 199.85 216.432 211.167C212.802 228.23 219.769 242.811 227.143 258.246C228.924 261.982 230.766 265.839 232.454 269.736C236.638 279.426 236.044 291.15 230.946 299.598C226.916 306.271 220.176 311.169 217.373 313.024C216.406 311.249 215.365 309.508 214.244 307.819C214.37 307.739 214.49 307.659 214.617 307.572C219.836 304.163 228.571 298.45 228.571 285.338C228.571 273.126 221.337 259.714 215.531 248.937C214.531 247.082 213.59 245.333 212.722 243.672C208.665 235.851 208.665 234.163 208.665 232.935H205.662C205.662 234.93 205.996 237.219 210.06 245.053C210.934 246.735 211.881 248.496 212.889 250.358C218.541 260.841 225.574 273.88 225.574 285.338C225.574 296.796 218.294 301.587 212.982 305.057C212.829 305.157 212.682 305.25 212.535 305.35C212.435 305.21 212.335 305.063 212.228 304.923C211.087 303.382 209.893 301.907 208.652 300.492C213.543 297.236 218.695 291.984 218.695 284.264C218.695 272.619 211.614 260.921 205.368 250.605C203.867 248.129 202.452 245.787 201.144 243.485C199.656 240.862 197.588 235.631 197.548 232.614L194.545 232.648C194.585 236.371 196.9 242.09 198.529 244.966C199.857 247.308 201.285 249.664 202.793 252.166C208.832 262.149 215.685 273.46 215.685 284.27C215.685 290.87 210.96 295.434 206.596 298.25C205.095 296.682 203.527 295.194 201.899 293.799C204.428 292.071 208.011 288.995 208.011 282.555C208.011 273.453 198.989 259.026 197.181 256.224C196.54 255.236 195.899 254.268 195.259 253.301C191.021 246.921 187.024 240.902 187.024 232.628H184.022C184.022 241.81 188.266 248.196 192.763 254.962C193.397 255.917 194.031 256.878 194.665 257.852C199.436 265.239 205.015 276.143 205.015 282.549C205.015 288.101 201.852 290.249 199.47 291.804C187.091 282.162 171.523 277.204 154.14 277.564V172.657C160.366 162.127 175.794 150.003 199.209 150.003L199.203 149.996ZM115.43 184.108C122.163 177.395 131.098 173.705 140.6 173.705H140.707L151.13 173.738V279.693L253.921 391.686C258.806 396.964 261.495 403.824 261.495 411.017V436.348C261.495 442.874 256.19 448.179 249.664 448.179H218.908V446.304C218.895 444.082 219.749 441.994 221.317 440.425C222.885 438.857 224.967 437.99 227.189 437.99H233.308V404.471V386.421H230.306V402.503L221.47 396.724V375.477H218.468V394.762L209.833 389.11V364.887H206.83V387.141L198.195 381.489V357.053H195.192V379.528L186.557 373.875V347.444H183.554V371.914L174.92 366.262V339.97H171.917V364.3L163.282 358.648V332.496H160.279V356.686L151.644 351.034V325.016H148.641V349.065L140.006 343.413V317.535H137.003V341.445L128.369 335.793V310.055H125.366V333.824L116.731 328.172V302.574H113.728V326.203L104.966 320.471V209.339C104.966 199.797 108.69 190.828 115.443 184.088L115.43 184.108ZM79.0217 446.431C79.035 447.005 79.035 447.579 79.0417 448.153H65.9492L80.4897 431.377C78.8482 436.735 78.9349 441.627 79.0217 446.424V446.431ZM61.9788 448.153H59.1094C56.8673 438.811 55.6661 429.088 55.6661 418.478C55.6661 392.994 67.7309 368.59 75.8386 358.401L103.779 323.301L146.172 351.034L61.9855 448.146L61.9788 448.153ZM51.7157 203.32C55.7061 201.318 59.3296 200.317 62.3792 200.317C65.4287 200.317 67.6775 201.238 69.3391 203.073C73.5565 207.758 72.4621 217.347 66.6766 226.395C62.4325 233.028 54.9187 238.78 46.9645 244.866C39.0503 250.925 30.9693 257.118 25.1771 264.718C31.1962 248.403 41.7395 232.328 56.9607 216.165L54.7719 214.11C41.3325 228.377 31.4764 242.611 25.0703 257.011C29.4879 234.696 36.4412 210.987 51.7157 203.32ZM10.9236 200.043C7.55369 192.763 4.36399 185.89 3.38305 176.955C2.07514 165.05 4.10374 154.72 8.80821 149.322C11.1438 146.639 14.1133 145.218 17.6299 145.111C21.1466 145.225 24.1161 146.639 26.4517 149.322C31.1561 154.72 33.1847 165.057 31.8768 176.955C30.8959 185.89 27.6995 192.77 24.3163 200.05C22.4679 204.027 20.5928 208.071 19.1047 212.482V160.986H16.1018V212.402C14.6204 208.018 12.7653 203.994 10.9369 200.043H10.9236ZM19.1113 469.306V451.169H32.9045C34.6394 456.881 36.7414 462.94 39.2972 469.306H19.1113ZM91.4468 521.289C107.702 546.52 126.126 575.12 126.126 601.025C126.126 614.825 120.588 627.737 110.538 637.386C100.515 647.009 87.1494 652.307 72.9092 652.307C43.6547 652.307 19.852 628.531 19.8053 599.29C19.8254 594.379 23.8692 590.235 28.6538 590.235C33.4383 590.235 37.5022 594.399 37.5022 599.323C37.5622 618.862 52.6032 634.15 71.7881 634.15C81.6508 634.15 90.6794 630.94 97.2123 625.114C104.112 618.962 107.756 610.507 107.756 600.664C107.756 579.351 91.1599 553.246 73.5898 525.613C69.1589 518.646 64.5813 511.44 60.1771 504.179C31.2028 456.394 28.0732 417.811 28.0732 403.437C28.0732 356.672 40.0579 332.91 49.6871 313.818C50.7614 311.69 51.8091 309.614 52.8034 307.572L102.024 206.99C101.977 207.771 101.943 208.558 101.943 209.352V320.778L73.4764 356.539C65.1084 367.056 52.6499 392.233 52.6499 418.485C52.6499 449.541 62.6528 473.097 78.8014 501.036C82.4115 507.289 86.7957 514.096 91.4401 521.302L91.4468 521.289ZM66.076 469.306C63.587 463.307 61.505 457.301 59.8701 451.149H143.37V469.306H66.076ZM146.372 469.306V448.146H118.439C118.439 447.946 118.432 447.746 118.426 447.566C118.379 445.557 118.406 445.257 118.866 444.583L116.391 442.888C115.356 444.403 115.383 445.55 115.423 447.632C115.423 447.792 115.43 447.966 115.436 448.146H109.731C109.731 447.939 109.731 447.726 109.731 447.526C109.697 442.955 109.738 441.039 111.059 439.418L108.73 437.523C106.681 440.045 106.701 442.868 106.728 447.546C106.728 447.739 106.728 447.939 106.728 448.146H100.636C100.636 447.853 100.636 447.566 100.636 447.279C100.595 441.139 100.569 437.089 103.518 433.038L101.089 431.27C97.566 436.115 97.5926 440.806 97.6327 447.299C97.6327 447.579 97.6327 447.859 97.6327 448.146H90.9463C90.993 438.183 91.627 432.865 95.9511 426.372L93.4554 424.704C88.7042 431.831 87.9968 437.77 87.9435 448.139H82.0512C82.0445 447.546 82.0379 446.952 82.0312 446.364C81.8844 438.103 81.7442 430.302 90.2924 420.106L90.2723 420.093L148.708 352.682L193.41 381.93L123.657 423.556H145.785C153.713 423.556 160.165 430.009 160.165 437.936V469.3H146.372V469.306Z" fill="black"/>
<path d="M187.812 199.456L188.686 198.235L190.001 197.515C188.8 195.313 188.266 192.844 188.466 190.368C188.74 186.965 190.321 183.868 192.924 181.653C195.526 179.437 198.829 178.37 202.239 178.643C203.44 178.743 204.688 179.064 206.056 179.624L206.63 178.236L207.751 177.242C205.149 174.313 201.585 172.524 197.715 172.217C189.427 171.55 182.16 177.742 181.493 186.024C181.066 191.322 183.428 196.347 187.805 199.463L187.812 199.456ZM184.496 186.257C184.756 183.048 186.244 180.131 188.7 178.043C191.155 175.954 194.278 174.953 197.481 175.207C198.302 175.273 199.103 175.427 199.884 175.654C196.62 175.921 193.524 177.202 190.982 179.364C187.765 182.1 185.81 185.924 185.477 190.128C185.43 190.742 185.423 191.355 185.45 191.963C184.682 190.201 184.342 188.252 184.502 186.257H184.496Z" fill="black"/>
<path d="M295.481 606.03C294.039 600.204 287.874 596.848 278.558 596.808H278.405C267.254 596.808 255.896 601.339 245.54 609.914C236.925 617.047 229.031 626.976 223.312 637.86L222.878 638.681L222.905 637.24C222.905 627.524 225.074 617.854 228.731 608.652L228.797 608.686C233.609 598.703 243.718 593.718 254.422 588.44C263.377 584.022 272.639 579.458 278.585 571.657C286.032 561.888 287.867 551.171 283.156 544.992C279.205 539.807 271.518 539.013 262.062 542.823C244.085 550.057 236.485 574.58 230.379 594.285C228.958 598.87 227.616 603.2 226.235 607.037C226.208 607.111 226.175 607.184 226.148 607.258C226.128 607.298 226.108 607.338 226.088 607.384H226.101C224.847 610.581 223.759 613.784 222.878 616.954V582.734H222.885C222.885 570.242 226.929 561.554 231.206 552.345C234.703 544.818 238.32 537.038 239.407 527.168C240.876 513.849 238.473 502.131 232.981 495.832C229.932 492.328 226.055 490.487 221.45 490.36H221.364C216.766 490.493 212.882 492.335 209.833 495.832C204.347 502.131 201.945 513.849 203.407 527.168C204.494 537.038 208.098 544.818 211.581 552.339C215.792 561.427 219.769 570.029 219.869 582.281V616.74C218.995 613.637 217.934 610.507 216.699 607.384H216.706C216.686 607.338 216.666 607.304 216.646 607.264C216.619 607.191 216.586 607.111 216.559 607.037C215.178 603.2 213.836 598.87 212.415 594.279C206.309 574.573 198.709 550.057 180.732 542.823C171.276 539.019 163.589 539.807 159.638 544.992C154.927 551.171 156.769 561.888 164.209 571.657C170.155 579.458 179.417 584.022 188.372 588.44C199.076 593.718 209.179 598.703 213.99 608.686L214.057 608.652C217.547 617.447 219.669 626.669 219.856 635.945V638.661L219.435 637.853C213.716 626.97 205.822 617.04 197.207 609.907C186.857 601.332 175.493 596.801 164.343 596.801H164.189C154.874 596.834 148.701 600.198 147.266 606.023C145.431 613.45 151.731 622.666 162.594 628.438C172.244 633.569 182.567 633.362 191.675 633.182C201.805 632.982 211.434 632.502 216.766 639.735C218.207 641.69 218.741 643.546 219.228 645.581L219.415 646.435C219.702 647.876 219.836 649.284 219.862 650.646V655.63H222.865V651.033C222.865 649.558 222.999 648.023 223.312 646.442L223.499 645.587C223.986 643.552 224.52 641.697 225.961 639.742C231.3 632.508 240.922 632.989 251.052 633.189C260.161 633.369 270.49 633.576 280.133 628.445C290.99 622.672 297.296 613.457 295.461 606.03H295.481ZM263.183 545.612C266.78 544.164 270.043 543.444 272.826 543.444C276.316 543.444 279.058 544.571 280.767 546.814C284.584 551.825 282.709 561.294 276.196 569.835C270.677 577.076 261.735 581.48 253.094 585.744C246.461 589.014 239.694 592.357 234.249 597.028C242.777 581.553 255.036 568.08 267.247 558.925L265.446 556.523C253.247 565.671 242.791 577.116 234.903 589.881C240.582 571.911 248.042 551.698 263.19 545.606L263.183 545.612ZM189.72 585.751C181.079 581.486 172.137 577.076 166.618 569.842C160.105 561.301 158.224 551.832 162.047 546.82C163.756 544.578 166.498 543.45 169.988 543.45C172.771 543.45 176.034 544.171 179.631 545.619C194.772 551.718 202.232 571.924 207.917 589.894C200.037 577.129 189.573 565.685 177.375 556.536L175.573 558.938C187.778 568.094 200.043 581.567 208.571 597.041C203.133 592.37 196.36 589.027 189.727 585.757L189.72 585.751ZM214.317 551.084C210.78 543.444 207.437 536.23 206.403 526.848C205.028 514.349 207.157 503.492 212.108 497.814C214.577 494.978 217.707 493.489 221.417 493.369C225.127 493.483 228.257 494.978 230.726 497.814C235.671 503.492 237.806 514.349 236.431 526.848C235.397 536.23 232.047 543.45 228.49 551.091C226.495 555.388 224.473 559.759 222.885 564.55V510.039H219.882V564.47C218.307 559.706 216.299 555.362 214.324 551.091L214.317 551.084ZM191.635 630.193C182.467 630.38 172.978 630.56 164.022 625.802C153.272 620.09 148.935 611.895 150.203 606.757C151.284 602.38 156.395 599.851 164.223 599.817H164.349C177.135 599.817 194.385 606.997 208.625 626.182C199.189 619.269 185.149 613.804 166.785 609.994L166.171 612.936C189.707 617.828 203.38 624.781 211.04 632.075C206.663 630.453 201.772 630.133 196.647 630.133C194.999 630.133 193.324 630.166 191.635 630.2V630.193ZM278.752 625.802C269.79 630.567 260.307 630.38 251.139 630.193C244.205 630.053 237.526 629.926 231.733 632.075C239.387 624.781 253.067 617.821 276.603 612.936L275.989 609.994C257.618 613.811 243.585 619.269 234.149 626.182C248.389 606.997 265.639 599.817 278.425 599.817H278.551C286.379 599.844 291.49 602.373 292.571 606.757C293.839 611.895 289.502 620.09 278.752 625.802Z" fill="black"/>
<path d="M17.7972 120.595H287.821L287.634 118.927C286.359 107.482 278.545 93.8427 248.51 93.8427C245.42 93.8427 241.81 93.8694 238.047 93.8961C228.184 93.9695 217.013 94.0562 211.621 93.6559C192.096 92.2078 180.031 83.9533 169.348 75.612C168.5 74.9514 167.666 74.2908 166.826 73.6301C157.05 65.8961 146.933 57.9019 128.536 57.9019C119.594 57.9019 107.369 59.7036 92.0611 73.7569C90.6264 75.0782 89.1917 76.4395 87.8037 77.7541C77.4939 87.5634 67.7513 96.8255 49.0002 96.8255C35.4806 96.8255 26.085 99.9619 21.0803 106.141C16.0955 112.294 17.4769 119.113 17.5369 119.4L17.7905 120.588L17.7972 120.595ZM23.4559 107.996C27.8734 102.584 36.4683 99.8351 49.0068 99.8351C68.9592 99.8351 79.5959 89.7188 89.879 79.9361C91.2537 78.6282 92.675 77.2736 94.0964 75.9724C101.737 68.959 112.561 60.9114 128.542 60.9114C145.899 60.9114 155.161 68.2384 164.97 75.9924C165.811 76.6597 166.659 77.327 167.506 77.9876C178.55 86.6092 191.042 95.1506 211.401 96.6587C216.913 97.0658 228.151 96.979 238.073 96.9056C241.83 96.8789 245.434 96.8522 248.517 96.8522C269.99 96.8522 282.062 103.826 284.417 117.592H20.3396C20.2261 115.657 20.4397 111.686 23.4559 107.996Z" fill="black"/>
<path d="M55.1125 35.06C57.0343 34.9132 58.469 33.2382 58.3222 31.3231C58.1754 29.4012 56.5004 27.9666 54.5853 28.1134C52.6635 28.2602 51.2288 29.9351 51.3756 31.8502C51.5224 33.7721 53.1973 35.2068 55.1125 35.06Z" fill="black"/>
<path d="M76.4996 154.167C76.6464 156.088 78.3213 157.523 80.2365 157.376C82.1583 157.23 83.593 155.555 83.4462 153.639C83.2994 151.718 81.6245 150.283 79.7093 150.43C77.7875 150.577 76.3528 152.252 76.4996 154.167Z" fill="black"/>
<path d="M253.768 331.655C251.846 331.802 250.411 333.477 250.558 335.392C250.705 337.314 252.38 338.749 254.295 338.602C256.217 338.455 257.652 336.78 257.505 334.865C257.358 332.943 255.683 331.509 253.768 331.655Z" fill="black"/>
<path d="M138.892 500.322C136.97 500.469 135.535 502.144 135.682 504.059C135.829 505.981 137.504 507.416 139.419 507.269C141.341 507.122 142.776 505.447 142.629 503.532C142.482 501.61 140.807 500.176 138.892 500.322Z" fill="black"/>
<path d="M52.5365 564.623C52.3897 562.702 50.7148 561.267 48.7996 561.414C46.8778 561.56 45.4431 563.235 45.5899 565.151C45.7367 567.072 47.4117 568.507 49.3268 568.36C51.2486 568.213 52.6833 566.539 52.5365 564.623Z" fill="black"/>
</g>
<defs>
<clipPath id="clip0_30_96">
<rect width="295.801" height="655.637" fill="white"/>
</clipPath>
</defs>
</svg>
