<svg width="345" height="635" viewBox="0 0 345 635" fill="none" xmlns="http://www.w3.org/2000/svg">
<g clip-path="url(#clip0_30_110)">
<path d="M216.274 17.1618C218.193 17.0252 219.638 15.359 219.501 13.44C219.364 11.5211 217.698 10.0762 215.779 10.2127C213.86 10.3493 212.415 12.0156 212.552 13.9345C212.688 15.8534 214.355 17.2983 216.274 17.1618Z" fill="black"/>
<path d="M30.9828 61.4451C32.9066 61.4451 34.4661 59.8856 34.4661 57.9618C34.4661 56.038 32.9066 54.4785 30.9828 54.4785C29.059 54.4785 27.4995 56.038 27.4995 57.9618C27.4995 59.8856 29.059 61.4451 30.9828 61.4451Z" fill="black"/>
<path d="M110.886 322.226C110.739 320.305 109.064 318.87 107.149 319.017C105.227 319.163 103.792 320.838 103.939 322.754C104.086 324.675 105.761 326.11 107.676 325.963C109.598 325.816 111.032 324.142 110.886 322.226Z" fill="black"/>
<path d="M213.216 228.504C213.069 226.582 211.395 225.147 209.479 225.294C207.558 225.441 206.123 227.116 206.27 229.031C206.416 230.953 208.091 232.388 210.007 232.241C211.928 232.094 213.363 230.419 213.216 228.504Z" fill="black"/>
<path d="M59.3431 606.256C57.4213 606.403 55.9866 608.078 56.1334 609.993C56.2802 611.915 57.9551 613.35 59.8703 613.203C61.7921 613.056 63.2268 611.381 63.08 609.466C62.9332 607.544 61.2583 606.11 59.3431 606.256Z" fill="black"/>
<path d="M278.612 583.448C276.69 583.595 275.255 585.27 275.402 587.185C275.549 589.107 277.224 590.542 279.139 590.395C281.061 590.248 282.495 588.573 282.349 586.658C282.202 584.736 280.527 583.302 278.612 583.448Z" fill="black"/>
<path d="M293.873 273.593C294.019 275.515 295.694 276.95 297.61 276.803C299.531 276.656 300.966 274.981 300.819 273.066C300.672 271.144 298.998 269.71 297.082 269.857C295.161 270.003 293.726 271.678 293.873 273.593Z" fill="black"/>
<path d="M119.847 82.9722C142.723 82.9722 161.334 64.3612 161.334 41.4861C161.334 18.611 142.723 0 119.847 0C96.9724 0 78.3613 18.611 78.3613 41.4861C78.3613 64.3612 96.9724 82.9722 119.847 82.9722ZM119.847 3.00286C141.068 3.00286 158.331 20.2659 158.331 41.4861C158.331 62.7063 141.068 79.9694 119.847 79.9694C98.6273 79.9694 81.3642 62.7063 81.3642 41.4861C81.3642 20.2659 98.6273 3.00286 119.847 3.00286Z" fill="black"/>
<path d="M341.872 354.39L344.161 355.685L343.967 346.096L343.226 345.675C342.279 345.142 278.305 308.9 222.432 277.337C251.526 241.143 281.995 203.487 290.716 192.717C299.178 182.267 300.252 171.65 293.826 162.007C289.375 153.8 293.165 140.954 294.794 135.669C295.114 135.709 295.441 135.736 295.768 135.736C298.697 135.736 301.807 134.148 303.422 130.217C309.181 116.19 318.823 91.3268 325.349 72.8692C331.642 55.0723 336.954 34.346 328.626 15.6282L328.099 14.4404L326.844 14.8007C303.976 21.3136 295.828 32.7511 293.299 61.8721L292.758 68.1381C291.204 86.1352 289.602 104.666 287.814 119.227C287.447 105.127 286.913 89.5851 286.506 77.8473C286.326 72.5623 286.165 67.9579 286.052 64.4546C284.978 30.3955 275.956 20.1258 254.789 8.71491L253.661 8.10767L252.527 9.58907C240.809 24.8836 231.554 36.9618 243.685 66.8168C246.881 74.691 250.011 82.6719 253.041 90.3926C257.532 101.857 261.816 112.781 266.367 123.531C254.215 104.299 241.837 84.8406 237.346 78.6548C219.148 53.6043 212.255 52.9103 193.831 51.0485C191.449 50.8083 188.739 50.5347 185.83 50.1877L184.222 49.9942L184.148 51.609C184.075 53.2439 183.995 54.7921 183.922 56.2735C182.727 80.0361 182.447 85.6814 210.387 108.476C221.057 117.178 232.388 125.9 242.931 133.547C230.706 127.381 220.216 122.089 215.899 120.394C191.455 110.765 184.729 111.746 166.572 120.148L165.404 120.688L165.758 121.923C170.602 138.745 181.606 148.234 198.475 150.116C199.336 150.209 203.086 150.663 208.278 151.29C217.567 152.412 230.619 153.986 240.175 155.101C231.66 155.141 220.763 155.248 214.591 155.508C197.514 156.229 190.374 160.132 182.774 172.918L182.28 173.752L182.834 174.546C183.154 175.006 189.867 184.295 204.808 184.295C207.197 184.295 209.793 184.055 212.609 183.508C215.018 183.041 227.336 178.817 241.983 173.772C247.482 171.877 251.819 170.382 253.081 169.988C257.618 168.58 259.413 164.997 259.253 162.014C272.633 159.899 282.702 161.76 286.332 167.086C290.236 172.924 289.535 178.79 284.083 186.09L283.983 186.21C277.617 194.018 268.288 205.502 257.678 218.568C243.825 235.617 228.164 254.902 213.83 272.479C190.548 259.333 169.388 247.402 155.795 239.781C144.497 233.449 140.787 221.697 138.992 206.55C142.442 205.155 145.158 201.311 145.452 196.981C145.699 193.911 145.932 191.095 146.146 188.473C147.227 175.313 147.947 166.625 148.094 154.34C148.168 148.208 145.538 141.995 140.487 136.37C136.73 132.179 132.98 129.79 132.826 129.69L131.892 129.103L131.051 129.817C130.911 129.937 127.535 132.82 124.405 137.491C120.201 143.763 118.473 150.283 119.407 156.342C121.109 167.366 122.864 175.4 125.359 186.417C125.192 186.017 125.019 185.61 124.852 185.216C117.131 166.952 112.033 154.887 103.885 138.311C94.3297 118.873 71.9951 114.102 71.0476 113.908L69.713 113.635L69.3126 114.936C69.019 115.877 62.3193 138.125 74.3507 156.048C84.6205 171.35 92.4946 181.746 104.413 197.474C105.18 198.489 105.981 199.543 106.788 200.611C104.052 198.669 101.45 196.82 98.9808 195.065C79.9894 181.573 67.4441 172.657 49.06 161.153C27.5996 147.72 2.31554 157.256 1.25453 157.67L0.0200195 158.15L0.340324 159.438C0.620591 160.573 7.53383 187.271 30.5491 197.601C50.2745 206.456 64.5814 211.888 86.2353 220.109C88.8311 221.097 91.5537 222.131 94.3964 223.212C93.0752 223.039 91.7673 222.872 90.5061 222.712C71.2411 220.236 58.5156 218.595 40.4651 217.36C19.2717 215.905 4.05052 233.222 3.41658 233.962L2.56244 234.95L3.42326 235.931C4.04385 236.638 18.224 252.527 38.0362 252.527C38.897 252.527 39.7712 252.5 40.652 252.433C58.6958 251.152 71.4012 249.484 90.6395 246.955C91.5137 246.841 92.4012 246.721 93.3021 246.608C81.8912 250.278 73.9904 252.854 63.3336 257.165C49.9542 262.576 47.0848 280.2 46.9647 280.947L46.8045 281.988L47.7321 282.495C47.8989 282.582 51.8026 284.691 57.2344 285.885C59.6567 286.419 62.0056 286.686 64.2411 286.686C68.7454 286.686 72.8159 285.605 76.2392 283.476C86.4756 277.103 93.4088 272.059 103.899 264.411C105.987 262.89 108.23 261.255 110.659 259.493C114.149 257.031 116.004 252.7 115.443 248.97C129.857 243.051 142.048 241.703 153.893 248.396C166.645 255.603 186.377 266.74 208.351 279.132C206.129 281.861 203.907 284.577 201.712 287.28C200.944 287.233 200.177 287.2 199.396 287.2C185.997 287.2 175.627 293.993 169.401 306.852C163.869 318.276 163.269 330.815 163.215 334.438C153.299 346.576 146.353 355.078 144.551 357.28C139.82 357.6 134.808 358.314 130.13 358.981L129.697 359.041L129.176 359.115C117.992 360.79 111.426 362.992 107.943 366.248L109.991 368.444C113.188 365.461 119.901 363.759 125.913 362.692C124.425 364.353 122.763 366.242 121.142 368.163C113.061 368.871 102.898 371.58 98.6538 375.55L100.702 377.746C103.812 374.843 111.499 372.508 118.386 371.513C116.618 373.715 115.083 375.784 114.095 377.385C105.62 378.173 97.7129 380.996 93.7625 384.679L95.8111 386.875C99.3678 383.551 107.162 380.909 115.19 380.295V380.282L125.132 380.989L111.186 398.132C110.652 398.105 110.111 398.092 109.571 398.092C96.1715 398.092 85.8416 404.698 79.7025 417.19C74.3107 428.154 73.6767 440.138 73.63 444.302L53.3774 469.199C53.3174 469.273 53.2707 469.346 53.2173 469.42C48.6863 468.706 41.1058 472.402 41.0257 472.443C28.5738 478.742 23.2755 493.636 28.9542 506.355C32.1372 513.482 77.774 589.033 100.829 609.373C119.907 626.202 141.521 634.85 163.175 634.85C174.666 634.85 186.164 632.415 197.294 627.477C212.269 620.83 228.824 606.096 245.166 584.863C259.133 566.712 272.586 544.304 283.049 521.763C302.648 479.516 304.156 436.528 301.974 407.895C300.799 392.493 297.49 377.239 281.348 369.992C274.241 366.802 257.578 361.564 240.202 362.151L240.002 362.171C225.661 364.573 212.255 370.285 204.274 374.896L192.356 314.539C194.045 312.437 195.773 310.288 197.528 308.106C202.286 309.281 206.163 311.469 209.099 314.666L211.308 312.637C208.238 309.301 204.314 306.939 199.576 305.551C201.111 303.642 202.666 301.707 204.234 299.752C209.119 301.353 213.923 304.57 218.595 309.388L220.75 307.299C216.119 302.528 211.208 299.178 206.203 297.309C207.571 295.608 208.952 293.886 210.34 292.158C214.591 293.746 218.441 296.302 221.744 299.765L223.92 297.69C220.53 294.14 216.619 291.464 212.315 289.702C213.843 287.807 215.378 285.892 216.92 283.977C273.714 316.014 340.924 353.89 341.898 354.437L341.872 354.39ZM292.144 163.015C292.144 163.015 292.138 162.988 292.131 162.975L292.525 162.761L292.151 163.015H292.144ZM261.175 144.611C261.562 144.651 261.942 144.678 262.323 144.678C264.425 144.678 266.387 144.07 267.961 143.083L268.175 143.283C273.8 148.448 279.185 153.399 283.817 158.517C277.764 154.086 270.684 151.571 262.169 148.935C262.243 147.534 261.942 146.025 261.168 144.611H261.175ZM279.926 135.996C282.262 144.27 284.624 151.097 286.94 157.503C281.935 151.844 276.002 146.386 270.217 141.074C271.678 139.232 272.553 136.59 271.839 133.474C273.874 135.302 276.296 136.109 278.558 136.109C279.025 136.109 279.479 136.063 279.933 135.996H279.926ZM322.513 71.8616C316.001 90.2725 306.385 115.076 300.639 129.069C299.498 131.852 297.49 132.78 295.668 132.733C309.021 86.9693 323.334 35.8607 327.498 20.9399C330.875 30.7759 331.982 45.0962 322.513 71.8616ZM290.056 125.186C292.151 109.904 293.98 88.7911 295.741 68.3783L296.282 62.1124C298.604 35.3669 305.444 24.7235 325.062 18.4575C321.626 30.7759 306.698 84.1733 292.805 131.805C290.997 130.631 289.622 128.362 290.056 125.186ZM287.407 129.27C288.181 131.792 289.902 133.694 291.924 134.761C290.743 138.598 288.461 146.266 288.761 153.706C286.773 148.121 284.764 142.122 282.782 135.075C285.004 133.921 286.626 131.872 287.407 129.27ZM283.042 64.5347C283.156 68.0447 283.309 72.649 283.496 77.9407C283.957 91.3535 284.591 109.724 284.944 125.226C285.024 128.736 283.663 130.911 281.955 132.066C274.581 104.866 265.686 60.2973 259.754 30.5757C258.386 23.7092 257.165 17.59 256.204 12.9056C273.64 22.7149 282.028 32.1439 283.049 64.528L283.042 64.5347ZM246.454 65.6757C235.517 38.7635 242.577 27.5862 253.261 13.5462C254.222 18.2173 255.436 24.3164 256.804 31.1696C262.757 61.0046 271.698 105.801 279.112 133.073C276.423 133.313 273.2 131.839 271.451 127.815C266.026 115.336 261.068 102.684 255.817 89.2849C252.787 81.5575 249.657 73.5699 246.448 65.6757H246.454ZM234.897 80.4098C239.801 87.1628 254.335 110.105 267.568 131.071C269.43 134.021 269.563 136.924 267.995 139.032L267.875 138.919C251.079 123.444 199.81 66.0494 188.653 53.5175C190.381 53.7044 192.009 53.8712 193.511 54.0247C211.454 55.8397 217.493 56.447 234.903 80.4098H234.897ZM186.904 56.4136C186.904 56.3068 186.918 56.2001 186.918 56.0933C199.016 69.6729 248.783 125.332 265.633 140.941C263.384 142.008 260.294 142.048 257.451 140.107C243.852 130.851 227.383 118.466 212.262 106.134C185.496 84.3001 185.737 79.4956 186.898 56.4136H186.904ZM214.778 123.17C219.048 124.852 230.339 130.551 242.29 136.583C246.574 138.745 251.005 140.981 255.363 143.156C257.959 144.457 259 146.339 259.166 148.001C232.761 139.906 185.236 125.419 171.463 121.222C188.112 114.042 194.985 115.37 214.784 123.17H214.778ZM198.789 147.113C184.168 145.485 174.319 137.631 169.481 123.764C181.633 127.468 231.36 142.629 258.486 150.937C257.418 152.618 255.249 153.566 252.594 153.413C249.724 153.252 222.985 150.023 208.625 148.288C203.427 147.66 199.67 147.207 198.796 147.107L198.789 147.113ZM214.697 158.484C224.333 158.077 246.334 158.057 250.645 158.057C252.794 158.057 254.228 158.744 255.116 159.658C233.575 163.475 198.068 169.688 187.111 171.603C193.544 161.921 199.857 159.111 214.704 158.484H214.697ZM252.166 167.099C250.859 167.506 246.501 169.007 240.983 170.909C230.399 174.559 214.411 180.071 212.015 180.538C198.135 183.241 190.188 177.756 186.964 174.679C197.161 172.898 234.316 166.398 256.244 162.508C256.19 164.276 254.982 166.225 252.166 167.099ZM258.392 159.085C257.765 157.95 256.798 156.929 255.476 156.202C258.192 155.641 260.321 154.093 261.415 151.838C268.569 154.053 274.668 156.175 279.906 159.485C274.401 157.843 267.054 157.677 258.392 159.085ZM259.987 220.443C270.597 207.384 279.926 195.893 286.332 188.045C286.379 187.985 286.432 187.919 286.466 187.879C292.311 180.044 293.299 173.031 289.482 166.478L290.41 165.718L292.191 165.07C296.896 173.218 295.614 181.873 288.374 190.821C279.619 201.638 248.963 239.521 219.776 275.836C218.668 275.208 217.567 274.588 216.466 273.967C230.713 256.497 246.241 237.372 259.987 220.45V220.443ZM112.62 227.41C114.936 227.036 116.798 226.082 118.119 224.567C125.046 228.544 135.742 234.783 142.896 238.967C135.776 236.832 126.761 235.257 116.404 234.329C116.411 234.183 116.431 234.029 116.431 233.882C116.417 231.287 115.063 229.078 112.62 227.416V227.41ZM131.732 205.342C132.973 206.436 134.435 207.044 136.029 207.084C137.21 216.733 139.206 225.294 143.463 232.061C139.052 227.209 134.481 220.643 129.476 212.696C130.985 210.901 131.752 208.311 131.725 205.342H131.732ZM142.182 235.077C135.195 230.993 125.933 225.594 119.68 222.004C120.601 219.756 120.621 217.213 119.847 214.651C121.142 215.265 122.41 215.585 123.624 215.585C124.839 215.585 126.02 215.265 127.101 214.611L126.06 212.882C131.825 222.131 137.064 229.678 142.189 235.084L142.182 235.077ZM145.071 154.287C144.924 166.465 144.251 174.653 143.136 188.212C142.923 190.841 142.689 193.651 142.442 196.747C142.249 199.576 140.667 202.179 138.632 203.387C138.165 198.689 137.831 193.691 137.484 188.453C137.184 183.948 136.877 179.29 136.45 174.533C135.622 165.224 135.015 155.041 134.475 146.052C134.221 141.795 133.981 137.724 133.734 134.094C137.764 137.377 145.185 144.724 145.071 154.293V154.287ZM130.738 134.301C130.985 137.918 131.225 141.982 131.478 146.226C132.019 155.234 132.626 165.444 133.454 174.793C133.874 179.511 134.181 184.155 134.481 188.646C134.835 193.971 135.182 199.129 135.689 204.047C133.153 203.66 131.585 200.544 130.945 197.521C130.271 194.518 129.643 191.762 129.056 189.193C126.04 175.921 124.211 167.906 122.356 155.862C120.895 146.426 127.208 138.111 130.738 134.301ZM101.176 139.613C109.291 156.115 114.102 167.499 122.069 186.364C123.611 190.014 125.266 193.924 127.081 198.208C129.036 202.686 129.21 207.27 127.755 209.926C124.098 204.007 120.208 197.408 115.977 190.234L114.095 187.038C98.2534 160.179 79.6691 127.902 73.8569 117.792C80.3564 119.907 94.4231 125.893 101.17 139.613H101.176ZM76.8264 154.353C68.345 141.715 69.9866 126.273 71.3212 119.4C77.2001 129.63 95.7177 161.787 111.513 188.566L113.394 191.762C117.752 199.156 121.762 205.956 125.539 212.048C122.243 214.017 117.685 210.146 114.502 205.842C111.72 202.159 109.17 198.789 106.788 195.646C94.4765 179.397 87.0428 169.588 76.8264 154.36V154.353ZM47.4518 163.676C65.7625 175.133 77.6005 183.548 97.2258 197.494C101.016 200.19 105.08 203.08 109.537 206.229C116.271 210.887 118.313 216.666 117.038 220.49C116.551 220.209 116.097 219.956 115.677 219.716C90.9398 205.756 21.1935 167.873 5.60533 159.412C13.019 157.356 31.6301 153.773 47.4518 163.676ZM31.7635 194.832C14.8475 187.238 6.99999 169.621 4.33746 162.141C20.2259 170.762 89.5652 208.431 114.202 222.331C114.582 222.545 114.996 222.785 115.443 223.032C112.5 225.621 106.468 224.634 101.31 222.598C96.2515 220.67 91.6138 218.908 87.2897 217.267C64.9151 208.772 51.4089 203.647 31.7635 194.832ZM40.2449 220.316C58.2087 221.551 70.2201 223.092 90.1124 225.655C93.9627 226.148 98.0866 226.682 102.604 227.256C107.829 227.863 113.415 229.925 113.441 233.902C113.441 233.962 113.428 234.023 113.428 234.083C107.182 233.609 100.489 233.362 93.4689 233.362C58.4022 233.362 19.8923 233.389 8.14108 233.402C13.1325 228.751 25.2373 219.288 40.2449 220.316ZM90.2325 243.945C70.3669 246.554 58.3755 248.129 40.4251 249.404C25.4709 250.465 13.2326 241.043 8.17444 236.398C19.9657 236.391 58.4289 236.358 93.4622 236.358C100.122 236.358 106.468 236.578 112.407 237.005C110.672 239.635 106.928 241.81 102.678 242.31C98.1867 242.891 94.0695 243.431 90.2258 243.939L90.2325 243.945ZM64.448 259.907C75.4918 255.443 83.1324 252.987 95.7911 248.917C98.2468 248.129 100.876 247.282 103.765 246.348C105.167 245.874 109.631 244.639 111.619 247.282C107.722 248.997 103.685 250.999 99.4546 253.241C85.855 260.448 65.8493 270.664 50.6148 278.351C51.9961 273.32 55.753 263.417 64.448 259.9V259.907ZM108.904 257.018C106.455 258.793 104.212 260.428 102.124 261.949C91.3135 269.823 84.794 274.574 74.6443 280.887C66.6767 285.845 56.6872 282.956 51.9227 281.061C67.1705 273.367 87.2296 263.124 100.863 255.897C104.926 253.741 108.803 251.819 112.534 250.165C112.58 252.614 111.206 255.383 108.897 257.011L108.904 257.018ZM114.435 246.101C113.488 244.512 112.007 243.445 110.158 242.958C112.694 241.49 114.656 239.494 115.67 237.272C124.432 238.033 132.212 239.261 138.645 240.896C131.045 240.582 123.104 242.551 114.435 246.101ZM150.316 243.345L150.33 243.318L150.363 243.338L151.838 240.829C152.625 241.376 153.446 241.897 154.313 242.384C199.777 267.875 329.92 341.585 340.998 347.857L341.051 350.473C322.62 340.083 198.676 270.23 155.354 245.747C153.679 244.799 151.998 244.005 150.31 243.345H150.316ZM199.316 290.169C187.225 304.99 175.754 319.037 166.432 330.448C167.399 319.017 172.504 290.216 199.316 290.169ZM128.776 381.209L134.535 381.616L120.034 399.653C118.333 399.113 116.571 398.699 114.769 398.432L128.782 381.209H128.776ZM75.7387 459.537L77.6805 504.219C69.7997 497.346 62.3927 490.68 56.7473 485.535C56.3669 485.188 56.0333 484.821 55.7197 484.434L75.7387 459.53V459.537ZM80.8035 506.929L78.5881 455.987L102.224 426.592L133.494 532.34C130.851 534.221 128.209 535.576 125.586 536.203C121.863 537.091 118.473 536.477 115.223 534.321C106.168 528.329 93.1219 517.585 80.8035 506.929ZM136.043 530.364L104.513 423.743L108.216 419.139C112.113 420.213 116.15 422.128 119.247 425.498L121.455 423.469C118.619 420.38 114.796 418.057 110.252 416.609L114.836 410.904C119.674 412.619 124.425 415.769 128.742 420.22L130.898 418.131C126.54 413.64 121.749 410.364 116.818 408.435L121.022 403.203C125.059 404.805 128.722 407.281 131.885 410.597L134.061 408.522C130.811 405.119 127.088 402.509 122.99 400.748L138.171 381.863L142.856 382.197C143.737 386.347 147.026 401.568 151.638 419.245C158.751 446.505 165.517 466.55 171.763 478.869C170.609 480.837 169.321 483.106 167.953 485.502C160.172 499.181 148.301 520.034 136.036 530.358L136.043 530.364ZM112.514 401.195C114.395 401.362 116.217 401.702 117.986 402.189L113.775 407.427C111.933 406.92 110.078 406.593 108.223 406.466L112.514 401.195ZM105.821 409.429C107.769 409.376 109.738 409.569 111.706 410.01L107.075 415.769C105.247 415.368 103.318 415.101 101.316 414.961L105.814 409.429H105.821ZM82.3783 418.478C87.9303 407.18 96.8054 401.342 108.737 401.081L76.793 440.359C77.3002 433.726 78.9484 425.465 82.3783 418.478ZM98.9674 417.851C100.656 417.884 102.718 418.037 104.946 418.418L54.0781 481.685C52.6901 478.221 53.1839 474.137 55.693 471.061L98.9674 417.857V417.851ZM240.382 365.1C257.178 364.553 273.24 369.605 280.093 372.688C291.978 378.026 297.443 388.282 298.958 408.081C301.113 436.355 299.632 478.795 280.307 520.455C269.937 542.803 256.611 565.011 242.771 582.988C226.736 603.821 210.58 618.241 196.06 624.687C195.473 624.948 194.885 625.188 194.291 625.435L193.624 618.448L190.635 618.735L191.382 626.589C189.353 627.35 187.311 628.03 185.27 628.624L184.389 620.103L181.399 620.41L182.333 629.412C180.311 629.919 178.29 630.339 176.254 630.68L175.173 620.096L172.184 620.403L173.278 631.12C171.209 631.387 169.134 631.574 167.059 631.681L166.085 620.123L163.095 620.377L164.056 631.774C162.034 631.794 160.012 631.741 157.997 631.607L156.856 618.461L153.866 618.722L154.967 631.347C152.979 631.14 150.99 630.853 149.008 630.493L147.781 615.759L144.791 616.012L145.952 629.879C143.937 629.432 141.928 628.911 139.926 628.311L138.578 613.083L135.589 613.35L136.823 627.323C134.842 626.649 132.873 625.895 130.911 625.061L129.356 608.065L126.367 608.338L127.768 623.666C125.766 622.725 123.778 621.705 121.802 620.61L120.214 600.831L117.218 601.072L118.639 618.768C116.604 617.541 114.596 616.219 112.6 614.818L111.119 596.494L108.123 596.734L109.397 612.469C107.329 610.894 105.28 609.233 103.265 607.471L102.084 588.88L99.0876 589.073L100.068 604.508C98.2001 602.66 96.2115 600.518 94.1362 598.142L93.1286 583.662L90.1324 583.868L90.8531 594.272C88.8912 591.903 86.8759 589.354 84.8207 586.678L84.2134 578.604L81.2172 578.83L81.4775 582.267C59.2564 552.472 34.0057 510.299 31.6768 505.087C26.7321 494.023 31.5233 480.564 42.3603 475.078C44.1687 474.164 48.5996 472.456 51.4556 472.282C49.1601 477.494 50.3212 483.76 54.7187 487.757C69.8865 501.577 97.7062 526.327 113.561 536.824C116.344 538.665 119.307 539.593 122.396 539.593C123.671 539.593 124.966 539.433 126.28 539.119C143.196 535.082 159.665 506.141 170.562 486.99C171.556 485.248 172.511 483.573 173.398 482.032C185.677 505.434 194.772 518.079 211.241 525.646L213.57 526.714L210.881 492.935L207.884 493.176L210.167 521.783C208.058 520.695 206.083 519.501 204.201 518.193L201.765 486.683L198.769 486.916L200.998 515.777C198.856 514.022 196.827 512.08 194.872 509.918L192.416 480.417L189.427 480.664L191.535 505.941C189.427 503.245 187.365 500.262 185.29 496.959L183.334 474.151L180.345 474.404L181.773 491.08C179.584 487.27 177.342 483.099 174.96 478.522L174.453 465.976L171.45 466.096L171.67 471.602C157.964 440.172 145.692 381.116 145.558 380.475L145.332 379.361L117.619 377.392C120.675 373.035 126.64 366.202 130.638 361.884C139.266 360.65 149.022 359.262 155.615 360.583C160.252 361.51 162.448 363.906 165.511 367.73C169.548 372.768 173.465 380.682 177.996 389.844C190.121 414.327 206.717 447.866 240.595 451.102L240.882 448.113C218.501 445.977 204.181 430.189 193.344 412.305C191.963 393.834 191.943 385.987 203.981 378.493C209.933 374.79 224.28 367.803 240.375 365.087L240.382 365.1ZM201.525 376.525C190.001 384.085 189.086 392.6 189.927 406.413C186.584 400.407 183.561 394.308 180.705 388.529C176.094 379.214 172.11 371.166 167.873 365.875C164.837 362.084 162.248 359.248 157.443 357.947C161.6 352.769 174.025 337.294 189.887 317.549L201.538 376.525H201.525ZM154.08 357.333C152.352 357.126 150.503 357.053 148.561 357.073C154.173 350.206 170.182 330.621 189.413 307.059C191.068 307.092 192.657 307.212 194.165 307.419C173.485 333.163 157.063 353.616 154.08 357.326V357.333ZM196.327 304.73C194.879 304.456 193.364 304.269 191.782 304.156C193.297 302.301 194.825 300.426 196.373 298.531C197.928 298.49 199.476 298.611 201.018 298.891C199.436 300.859 197.868 302.808 196.327 304.73ZM203.106 296.295C201.665 295.935 200.224 295.694 198.782 295.581C200.19 293.859 201.605 292.124 203.026 290.376C204.468 290.536 205.876 290.783 207.25 291.137C205.856 292.872 204.474 294.587 203.106 296.295ZM209.299 288.588C207.978 288.194 206.63 287.887 205.249 287.654C207.157 285.311 209.079 282.962 211.001 280.6C212.075 281.207 213.156 281.815 214.244 282.429C212.582 284.49 210.934 286.546 209.292 288.588H209.299Z" fill="black"/>
<path d="M208.745 420.3C209.172 421.147 209.573 421.948 209.933 422.695L210.073 422.982L210.313 423.189C215.105 427.286 234.463 436.462 246.021 436.462C246.521 436.462 247.015 436.442 247.482 436.408C250.745 436.161 260.688 435.401 281.468 419.359L282.155 418.832L282.308 418.451C284.39 413.26 286.145 403.971 285.084 395.843C284.297 389.817 280.053 384.746 274.268 382.924C263.477 379.521 251.593 377.559 242.431 377.666L242.237 377.679C233.182 378.96 221.718 382.711 211.568 387.709C206.129 390.385 202.699 396.043 202.84 402.122C202.986 408.822 206.323 415.462 208.759 420.313L208.745 420.3ZM212.889 390.391C222.585 385.613 233.942 381.89 242.557 380.655C251.259 380.548 263.05 382.53 273.36 385.773C278.031 387.248 281.461 391.345 282.102 396.223C283.069 403.624 281.541 412.045 279.666 416.95L279.633 416.976C274.668 420.807 259.56 432.471 247.255 433.412C237.219 434.159 217.4 425.031 212.502 421.1C212.175 420.426 211.815 419.706 211.434 418.952C208.999 414.1 205.969 408.068 205.836 402.042C205.729 397.131 208.498 392.553 212.889 390.391Z" fill="black"/>
<path d="M218.948 413.059L218.768 416.056C219.229 416.082 226.996 416.543 235.077 416.543C238.467 416.543 241.91 416.463 244.893 416.236C255.189 415.448 268.589 412.345 269.156 412.212L268.475 409.289C268.335 409.322 254.736 412.479 244.666 413.246C234.797 414 219.108 413.073 218.955 413.066L218.948 413.059Z" fill="black"/>
<path d="M227.323 396.203L227.096 393.207C224.967 393.367 218.481 393.861 217.073 400.107L220.003 400.768C220.643 397.945 222.899 396.537 227.323 396.197V396.203Z" fill="black"/>
<path d="M264.932 397.344L267.728 396.243C265.386 390.284 258.9 390.778 256.771 390.945L256.998 393.941C261.429 393.607 263.871 394.655 264.932 397.344Z" fill="black"/>
<path d="M236.839 403.397C236.785 402.663 237.019 401.949 237.492 401.395C237.973 400.834 238.64 400.501 239.374 400.441L246.388 399.907C247.122 399.853 247.836 400.087 248.389 400.561C248.95 401.041 249.284 401.709 249.344 402.443L252.34 402.216C252.226 400.681 251.519 399.286 250.351 398.285C249.184 397.284 247.702 396.797 246.161 396.911L239.147 397.445C237.613 397.558 236.218 398.265 235.217 399.433C234.216 400.601 233.729 402.089 233.842 403.624L236.839 403.397Z" fill="black"/>
<path d="M220.44 495.679L217.446 495.907L219.933 528.53L222.927 528.302L220.44 495.679Z" fill="black"/>
<path d="M230.32 505.396L227.324 505.607L228.843 527.161L231.838 526.95L230.32 505.396Z" fill="black"/>
</g>
<defs>
<clipPath id="clip0_30_110">
<rect width="344.161" height="634.804" fill="white"/>
</clipPath>
</defs>
</svg>
