<svg width="26" height="26" viewBox="0 0 26 26" fill="none" xmlns="http://www.w3.org/2000/svg">
<g clip-path="url(#clip0_24_337)">
<path d="M12.5112 19.704C9.02318 19.704 6.17383 16.8546 6.17383 13.3666C6.17383 9.87865 9.02318 7.0293 12.5112 7.0293C15.9992 7.0293 18.8485 9.87865 18.8485 13.3666C18.8485 16.8546 15.9992 19.704 12.5112 19.704Z" fill="#000D20"/>
<path d="M12.5107 0.855713C11.6919 0.855713 11.0205 1.52711 11.0205 2.34589C11.0205 3.16467 11.6919 3.83607 12.5107 3.83607C13.3295 3.83607 14.0009 3.16467 14.0009 2.34589C14.0009 1.52711 13.3295 0.855713 12.5107 0.855713Z" fill="#000D20"/>
<path d="M3.66814 4.52385C3.09499 5.097 3.09499 6.04678 3.66814 6.61993C4.24129 7.19307 5.19107 7.19307 5.76421 6.61993C6.33736 6.04678 6.33736 5.097 5.76421 4.52385C5.19107 3.95071 4.24129 3.95071 3.66814 4.52385Z" fill="#000D20"/>
<path d="M0 13.3666C0 14.1854 0.671399 14.8568 1.49018 14.8568C2.30896 14.8568 2.98036 14.1854 2.98036 13.3666C2.98036 12.5479 2.30896 11.8765 1.49018 11.8765C0.671399 11.8765 0 12.5479 0 13.3666Z" fill="#000D20"/>
<path d="M3.66814 22.2258C4.24129 22.799 5.19107 22.799 5.76421 22.2258C6.33736 21.6527 6.33736 20.7029 5.76421 20.1297C5.19107 19.5566 4.24129 19.5566 3.66814 20.1297C3.09499 20.7029 3.09499 21.6527 3.66814 22.2258Z" fill="#000D20"/>
<path d="M12.5107 25.8776C13.3295 25.8776 14.0009 25.2062 14.0009 24.3874C14.0009 23.5686 13.3295 22.8972 12.5107 22.8972C11.6919 22.8972 11.0205 23.5686 11.0205 24.3874C11.0205 25.2062 11.6919 25.8776 12.5107 25.8776Z" fill="#000D20"/>
<path d="M21.3697 22.2258C21.9428 21.6527 21.9428 20.7029 21.3697 20.1297C20.7965 19.5566 19.8468 19.5566 19.2736 20.1297C18.7005 20.7029 18.7005 21.6527 19.2736 22.2258C19.8468 22.799 20.7965 22.799 21.3697 22.2258Z" fill="#000D20"/>
<path d="M25.0223 13.3666C25.0223 12.5479 24.3509 11.8765 23.5322 11.8765C22.7134 11.8765 22.042 12.5479 22.042 13.3666C22.042 14.1854 22.7134 14.8568 23.5322 14.8568C24.3509 14.8568 25.0223 14.1854 25.0223 13.3666Z" fill="#000D20"/>
<path d="M21.3697 4.52385C20.7965 3.95071 19.8468 3.95071 19.2736 4.52385C18.7005 5.097 18.7005 6.04678 19.2736 6.61993C19.8468 7.19307 20.7965 7.19307 21.3697 6.61993C21.9428 6.04678 21.9428 5.097 21.3697 4.52385Z" fill="#000D20"/>
</g>
<defs>
<clipPath id="clip0_24_337">
<rect width="25.0219" height="25.0219" fill="white" transform="translate(0 0.855713)"/>
</clipPath>
</defs>
</svg>
