<svg width="21" height="24" viewBox="0 0 21 24" fill="none" xmlns="http://www.w3.org/2000/svg">
<g clip-path="url(#clip0_24_359)">
<path d="M10.3806 10.3277C9.39811 10.3277 8.5957 11.1301 8.5957 12.1126C8.5957 13.0952 9.39811 13.8976 10.3806 13.8976C11.3632 13.8976 12.1656 13.0952 12.1656 12.1126C12.1656 11.1301 11.3632 10.3277 10.3806 10.3277Z" fill="#000D20"/>
<path d="M10.3806 4.23595C11.3632 4.23595 12.1656 3.43355 12.1656 2.45102C12.1656 1.46848 11.3632 0.666077 10.3806 0.666077C9.39811 0.666077 8.5957 1.46848 8.5957 2.45102C8.5957 3.43355 9.39811 4.23595 10.3806 4.23595Z" fill="#000D20"/>
<path d="M3.60037 7.93686C4.09164 7.08533 3.79688 5.98817 2.94535 5.4969C2.09381 5.00563 0.996651 5.30039 0.505383 6.15192C0.0141158 7.00345 0.308876 8.10062 1.16041 8.59188C2.01194 9.08315 3.1091 8.78839 3.60037 7.93686Z" fill="#000D20"/>
<path d="M3.42068 15.6661C2.92941 14.8146 1.83225 14.5198 0.980719 15.0111C0.129189 15.5023 -0.165572 16.5995 0.325696 17.451C0.816963 18.3026 1.91413 18.5973 2.76566 18.106C3.61719 17.6148 3.91195 16.5176 3.42068 15.6661Z" fill="#000D20"/>
<path d="M10.0037 19.6781C9.02115 19.6781 8.21875 20.4805 8.21875 21.463C8.21875 22.4456 9.02115 23.248 10.0037 23.248C10.9862 23.248 11.7886 22.4456 11.7886 21.463C11.7886 20.4805 10.9862 19.6781 10.0037 19.6781Z" fill="#000D20"/>
<path d="M16.7827 15.9772C16.2915 16.8288 16.5862 17.9259 17.4378 18.4172C18.2893 18.9085 19.3864 18.6137 19.8777 17.7622C20.369 16.9106 20.0742 15.8135 19.2227 15.3222C18.3712 14.8309 17.274 15.1257 16.7827 15.9772Z" fill="#000D20"/>
<path d="M16.9634 8.26438C17.4547 9.11591 18.5518 9.41067 19.4034 8.9194C20.2549 8.42813 20.5496 7.33097 20.0584 6.47944C19.5671 5.62791 18.4699 5.33315 17.6184 5.82441C16.7669 6.31568 16.4721 7.41285 16.9634 8.26438Z" fill="#000D20"/>
</g>
<defs>
<clipPath id="clip0_24_359">
<rect width="20.2238" height="22.5819" fill="white" transform="translate(0.0800781 0.666077)"/>
</clipPath>
</defs>
</svg>
