<svg width="26" height="26" viewBox="0 0 26 26" fill="none" xmlns="http://www.w3.org/2000/svg">
<g clip-path="url(#clip0_24_338)">
<path d="M12.9389 19.704C9.45091 19.704 6.60156 16.8546 6.60156 13.3666C6.60156 9.87865 9.45091 7.0293 12.9389 7.0293C16.4269 7.0293 19.2763 9.87865 19.2763 13.3666C19.2763 16.8546 16.4269 19.704 12.9389 19.704ZM12.9389 8.30659C10.1387 8.30659 7.87886 10.5828 7.87886 13.3666C7.87886 16.1505 10.1551 18.4267 12.9389 18.4267C15.7228 18.4267 18.0153 16.1505 18.0153 13.3666C18.0153 10.5828 15.7391 8.30659 12.9389 8.30659Z" fill="#000D20"/>
<path d="M12.9384 0.855713C12.1196 0.855713 11.4482 1.52711 11.4482 2.34589C11.4482 3.16467 12.1196 3.83607 12.9384 3.83607C13.7572 3.83607 14.4286 3.16467 14.4286 2.34589C14.4286 1.52711 13.7572 0.855713 12.9384 0.855713Z" fill="#000D20"/>
<path d="M4.09587 4.52385C3.52273 5.097 3.52273 6.04678 4.09587 6.61993C4.66902 7.19307 5.6188 7.19307 6.19195 6.61993C6.76509 6.04678 6.76509 5.097 6.19195 4.52385C5.6188 3.95071 4.66902 3.95071 4.09587 4.52385Z" fill="#000D20"/>
<path d="M0.427734 13.3666C0.427734 14.1854 1.09913 14.8568 1.91791 14.8568C2.73669 14.8568 3.40809 14.1854 3.40809 13.3666C3.40809 12.5479 2.73669 11.8765 1.91791 11.8765C1.09913 11.8765 0.427734 12.5479 0.427734 13.3666Z" fill="#000D20"/>
<path d="M4.09587 22.2258C4.66902 22.799 5.6188 22.799 6.19195 22.2258C6.76509 21.6527 6.76509 20.7029 6.19195 20.1297C5.6188 19.5566 4.66902 19.5566 4.09587 20.1297C3.52273 20.7029 3.52273 21.6527 4.09587 22.2258Z" fill="#000D20"/>
<path d="M12.9384 25.8776C13.7572 25.8776 14.4286 25.2062 14.4286 24.3874C14.4286 23.5686 13.7572 22.8972 12.9384 22.8972C12.1196 22.8972 11.4482 23.5686 11.4482 24.3874C11.4482 25.2062 12.1196 25.8776 12.9384 25.8776Z" fill="#000D20"/>
<path d="M21.7974 22.2258C22.3706 21.6527 22.3706 20.7029 21.7974 20.1297C21.2243 19.5566 20.2745 19.5566 19.7013 20.1297C19.1282 20.7029 19.1282 21.6527 19.7013 22.2258C20.2745 22.799 21.2243 22.799 21.7974 22.2258Z" fill="#000D20"/>
<path d="M25.4501 13.3666C25.4501 12.5479 24.7787 11.8765 23.9599 11.8765C23.1411 11.8765 22.4697 12.5479 22.4697 13.3666C22.4697 14.1854 23.1411 14.8568 23.9599 14.8568C24.7787 14.8568 25.4501 14.1854 25.4501 13.3666Z" fill="#000D20"/>
<path d="M21.7974 4.52385C21.2243 3.95071 20.2745 3.95071 19.7013 4.52385C19.1282 5.097 19.1282 6.04678 19.7013 6.61993C20.2745 7.19307 21.2243 7.19307 21.7974 6.61993C22.3706 6.04678 22.3706 5.097 21.7974 4.52385Z" fill="#000D20"/>
</g>
<defs>
<clipPath id="clip0_24_338">
<rect width="25.0219" height="25.0219" fill="white" transform="translate(0.427734 0.855713)"/>
</clipPath>
</defs>
</svg>
