<svg width="26" height="26" viewBox="0 0 26 26" fill="none" xmlns="http://www.w3.org/2000/svg">
<g clip-path="url(#clip0_24_376)">
<path d="M12.725 7.0293C9.23705 7.0293 6.3877 9.87865 6.3877 13.3666C6.3877 16.8546 9.23705 19.704 12.725 19.704C16.213 19.704 19.0624 16.8546 19.0624 13.3666C19.0624 9.87865 16.213 7.0293 12.725 7.0293ZM12.725 18.4267V8.29022C15.5253 8.29022 17.8015 10.5664 17.8015 13.3666C17.8015 16.1669 15.5253 18.4267 12.725 18.4267Z" fill="#000D20"/>
<path d="M12.7246 3.83607C13.5476 3.83607 14.2147 3.16889 14.2147 2.34589C14.2147 1.52289 13.5476 0.855713 12.7246 0.855713C11.9016 0.855713 11.2344 1.52289 11.2344 2.34589C11.2344 3.16889 11.9016 3.83607 12.7246 3.83607Z" fill="#000D20"/>
<path d="M5.97808 6.61993C6.55123 6.04678 6.55123 5.097 5.97808 4.52385C5.40494 3.95071 4.45515 3.95071 3.88201 4.52385C3.30886 5.097 3.30886 6.04678 3.88201 6.61993C4.45515 7.19307 5.40494 7.19307 5.97808 6.61993Z" fill="#000D20"/>
<path d="M1.70405 11.8765C0.885266 11.8765 0.213867 12.5479 0.213867 13.3666C0.213867 14.1854 0.885266 14.8568 1.70405 14.8568C2.52282 14.8568 3.19422 14.1854 3.19422 13.3666C3.19422 12.5479 2.52282 11.8765 1.70405 11.8765Z" fill="#000D20"/>
<path d="M3.88201 20.1134C3.30886 20.6865 3.30886 21.6363 3.88201 22.2095C4.45515 22.7826 5.40494 22.7826 5.97808 22.2095C6.55123 21.6363 6.55123 20.6865 5.97808 20.1134C5.40494 19.5402 4.45515 19.5402 3.88201 20.1134Z" fill="#000D20"/>
<path d="M12.7246 22.9136C11.9058 22.9136 11.2344 23.585 11.2344 24.4038C11.2344 25.2226 11.9058 25.894 12.7246 25.894C13.5433 25.894 14.2147 25.2226 14.2147 24.4038C14.2147 23.585 13.5433 22.9136 12.7246 22.9136Z" fill="#000D20"/>
<path d="M19.4719 20.1134C18.8987 20.6865 18.8987 21.6363 19.4719 22.2095C20.045 22.7826 20.9948 22.7826 21.5679 22.2095C22.1411 21.6363 22.1411 20.6865 21.5679 20.1134C20.9948 19.5402 20.045 19.5402 19.4719 20.1134Z" fill="#000D20"/>
<path d="M23.7617 11.8765C22.9429 11.8765 22.2715 12.5479 22.2715 13.3666C22.2715 14.1854 22.9429 14.8568 23.7617 14.8568C24.5804 14.8568 25.2518 14.1854 25.2518 13.3666C25.2518 12.5479 24.5804 11.8765 23.7617 11.8765Z" fill="#000D20"/>
<path d="M19.4719 4.52385C18.8987 5.097 18.8987 6.04678 19.4719 6.61993C20.045 7.19307 20.9948 7.19307 21.5679 6.61993C22.1411 6.04678 22.1411 5.097 21.5679 4.52385C20.9948 3.95071 20.045 3.95071 19.4719 4.52385Z" fill="#000D20"/>
</g>
<defs>
<clipPath id="clip0_24_376">
<rect width="25.0219" height="25.0219" fill="white" transform="translate(0.213867 0.855713)"/>
</clipPath>
</defs>
</svg>
