<svg width="28" height="26" viewBox="0 0 28 26" fill="none" xmlns="http://www.w3.org/2000/svg">
<g clip-path="url(#clip0_24_326)">
<path d="M23.4473 11.2214C20.6962 11.2214 18.4528 13.4649 18.4528 16.216V20.0479L14.9156 23.585V13.8252L20.5816 8.15921C21.122 8.38847 21.777 8.29021 22.2191 7.84807C22.7923 7.27493 22.7923 6.32514 22.2191 5.752C21.646 5.17885 20.6962 5.17885 20.1231 5.752C19.6809 6.19414 19.5827 6.84916 19.8119 7.38956L14.932 12.2695V3.72143C15.1121 3.65592 15.2923 3.54129 15.4396 3.39391C16.0128 2.82077 16.0128 1.87099 15.4396 1.29784C14.8665 0.724695 13.9167 0.724695 13.3436 1.29784C12.7704 1.87099 12.7704 2.82077 13.3436 3.39391C13.491 3.54129 13.6711 3.65592 13.8512 3.72143V12.2859L8.97129 7.40593C9.20055 6.86554 9.1023 6.21051 8.66016 5.76837C8.08701 5.19523 7.13723 5.19523 6.56408 5.76837C5.99094 6.34152 5.99094 7.2913 6.56408 7.86445C7.00622 8.30659 7.66125 8.40484 8.20164 8.17558L13.8676 13.8415V23.6014L10.3141 20.0479V16.216C10.3141 13.4649 8.07064 11.2214 5.31954 11.2214H0.734375V15.7739C0.734375 18.525 2.97783 20.7684 5.72893 20.7684H9.42981L14.3589 25.6975L19.2879 20.7684H22.9888C25.7399 20.7684 27.9833 18.525 27.9833 15.7739V11.2214H23.4309H23.4473ZM19.5499 16.216C19.5499 14.0708 21.3021 12.3186 23.4473 12.3186H26.182L19.5663 18.9507V16.216H19.5499ZM9.1678 16.216V18.9507L2.55206 12.335H5.28679C7.43199 12.335 9.18418 14.0872 9.18418 16.2324L9.1678 16.216ZM5.72893 19.6712C3.58373 19.6712 1.83154 17.9191 1.83154 15.7739V13.1701L8.33264 19.6712H5.72893ZM23.0052 19.6712H20.4014L26.9026 13.1701V15.7739C26.9026 17.9191 25.1504 19.6712 23.0052 19.6712Z" fill="#000D20"/>
</g>
<defs>
<clipPath id="clip0_24_326">
<rect width="27.2653" height="24.8418" fill="white" transform="translate(0.734375 0.855713)"/>
</clipPath>
</defs>
</svg>
