<svg width="21" height="26" viewBox="0 0 21 26" fill="none" xmlns="http://www.w3.org/2000/svg">
<g clip-path="url(#clip0_24_306)">
<path d="M10.3076 25.2226L4.51068 19.4256C0.98993 15.9049 0.98993 10.1734 4.51068 6.65267L10.3076 0.855713L16.1046 6.65267C19.6253 10.1734 19.6253 15.9049 16.1046 19.4256L10.3076 25.2226ZM10.3076 2.64065L5.41134 7.53695C2.38185 10.5664 2.38185 15.4955 5.41134 18.525L10.3076 23.4213L15.2039 18.525C18.2334 15.4955 18.2334 10.5664 15.2039 7.53695L10.3076 2.64065Z" fill="#000D20"/>
<path d="M10.9299 1.75635H9.66895V23.0774H10.9299V1.75635Z" fill="#000D20"/>
<path d="M19.3505 6.58507L9.85547 16.0801L10.7471 16.9717L20.2421 7.47667L19.3505 6.58507Z" fill="#000D20"/>
<path d="M1.25879 6.58709L0.367188 7.4787L9.8622 16.9737L10.7538 16.0821L1.25879 6.58709Z" fill="#000D20"/>
</g>
<defs>
<clipPath id="clip0_24_306">
<rect width="19.88" height="24.3669" fill="white" transform="translate(0.367188 0.855713)"/>
</clipPath>
</defs>
</svg>
