<svg width="18" height="21" viewBox="0 0 18 21" fill="none" xmlns="http://www.w3.org/2000/svg">
<g clip-path="url(#clip0_24_294)">
<path d="M9.0132 20.8804C4.28065 20.8804 0.416016 16.3116 0.416016 10.6784C0.416016 5.04517 4.26428 0.476379 9.0132 0.476379C13.7621 0.476379 17.6104 5.04517 17.6104 10.6784C17.6104 16.3116 13.7621 20.8804 9.0132 20.8804ZM9.0132 1.7373C4.96843 1.7373 1.67694 5.74932 1.67694 10.6784C1.67694 15.6074 4.96843 19.6194 8.99682 19.6194C13.0252 19.6194 16.3167 15.6074 16.3167 10.6784C16.3167 5.74932 13.0416 1.7373 9.0132 1.7373Z" fill="#000D20"/>
<path d="M8.58741 20.733C7.26098 19.5867 6.60596 17.1631 6.67146 15.4437C6.73697 13.4786 7.39199 12.2341 8.4564 10.3673C9.45531 8.61506 10.0121 7.55065 10.0776 5.88034C10.1267 4.47204 9.56994 2.44147 8.60378 1.58994L9.43894 0.623779C10.7654 1.77007 11.4204 4.19366 11.3549 5.91309C11.2894 7.97642 10.5361 9.30284 9.56994 10.9895C8.57103 12.7417 8.01426 13.8061 7.94876 15.4764C7.89963 16.8847 8.4564 18.9153 9.42256 19.7668L8.58741 20.733Z" fill="#000D20"/>
</g>
<defs>
<clipPath id="clip0_24_294">
<rect width="17.178" height="20.404" fill="white" transform="translate(0.416016 0.476379)"/>
</clipPath>
</defs>
</svg>
