<svg width="182" height="69" viewBox="0 0 182 69" fill="none" xmlns="http://www.w3.org/2000/svg">
<g clip-path="url(#clip0_6_2)">
<path d="M162.565 14.4593H161.752V13.8307H164.097V14.4593H163.285V16.928H162.565V14.4593ZM164.634 13.8307H165.507L166.059 15.2873L166.611 13.8307H167.485V16.928H166.81V14.996L166.289 16.376H165.814L165.293 15.0113V16.928H164.634V13.8307Z" fill="white"/>
<path d="M100.074 13.2173C88.379 13.2173 78.8605 22.77 78.8605 34.5153C78.8605 46.2147 88.379 55.7367 100.074 55.7367C111.815 55.7367 121.364 46.2147 121.364 34.5153C121.364 22.77 111.815 13.2173 100.074 13.2173ZM100.074 14.812C110.865 14.812 119.632 23.644 119.632 34.5153C119.632 45.3407 110.865 54.142 100.074 54.142C89.3293 54.142 80.5926 45.3407 80.5926 34.5153C80.5926 23.6593 89.3293 14.812 100.074 14.812Z" fill="white"/>
<path d="M140.278 46.644C140.278 52.1793 136.753 54.142 133.749 54.142C130.729 54.142 127.219 52.1793 127.219 46.644V13.8H125.487V46.782C125.487 52.302 128.66 55.7367 133.749 55.7367C138.853 55.7367 142.01 52.302 142.01 46.782V13.8H140.278V46.644Z" fill="white"/>
<path d="M155.545 22.9693C158.303 22.8773 160.158 21.0373 160.158 18.4C160.158 15.7167 158.166 13.8307 155.315 13.8307H147.804V55.0467H149.536V23.8433L173.432 55.0927H175.608L150.977 22.954C152.525 22.954 155.483 22.954 155.545 22.954V22.9693ZM149.551 21.3747V15.4253H155.33C157.246 15.4253 158.441 16.56 158.441 18.4C158.441 20.24 157.246 21.3747 155.33 21.3747H149.551Z" fill="white"/>
<path d="M44.588 13.2787C39.6525 13.2787 36.541 16.4833 36.3417 21.6967H36.3264V22.2333V46.1993V46.782C36.3264 52.302 39.4992 55.7367 44.588 55.7367C49.6921 55.7367 52.8496 52.302 52.8496 46.782V46.1993V22.2333V21.6967H52.8342C52.635 16.4987 49.5235 13.2787 44.588 13.2787ZM44.588 54.1573C41.5685 54.1573 38.0584 52.1947 38.0584 46.6593V46.2147V22.3867C38.0584 16.8513 41.5838 14.8887 44.588 14.8887C47.6075 14.8887 51.1176 16.8513 51.1176 22.3867V46.2147V46.6593C51.1176 52.1947 47.5922 54.1573 44.588 54.1573Z" fill="white"/>
<path d="M73.5878 50.8453L60.6973 13.8H58.8273V55.0773H60.5593V18.8907L73.1433 55.0773H75.3198V13.8H73.5878V50.8453Z" fill="white"/>
<path d="M28.7086 21.4053H1.73202V13.8H0V55.062H1.73202V23H28.7086V55.062H30.4406V13.8H28.7086V21.4053Z" fill="white"/>
<path d="M15.2203 45.908C16.3462 45.908 17.2589 44.995 17.2589 43.8687C17.2589 42.7424 16.3462 41.8293 15.2203 41.8293C14.0945 41.8293 13.1818 42.7424 13.1818 43.8687C13.1818 44.995 14.0945 45.908 15.2203 45.908Z" fill="white"/>
<path d="M100.059 69C101.184 69 102.097 68.0869 102.097 66.9607C102.097 65.8344 101.184 64.9213 100.059 64.9213C98.9327 64.9213 98.02 65.8344 98.02 66.9607C98.02 68.0869 98.9327 69 100.059 69Z" fill="white"/>
<path d="M133.749 27.0633C134.868 27.0633 135.787 26.1587 135.787 25.024C135.787 23.8893 134.883 22.9847 133.749 22.9847C132.614 22.9847 131.71 23.8893 131.71 25.024C131.71 26.1433 132.614 27.0633 133.749 27.0633Z" fill="white"/>
<path d="M44.5727 4.07867C45.6916 4.07867 46.6113 3.174 46.6113 2.03933C46.6113 0.904667 45.6916 0 44.5727 0C43.4538 0 42.5341 0.904667 42.5341 2.03933C42.5341 3.15867 43.4384 4.07867 44.5727 4.07867Z" fill="white"/>
<path d="M179.961 57.1473C181.087 57.1473 182 56.2343 182 55.108C182 53.9817 181.087 53.0687 179.961 53.0687C178.836 53.0687 177.923 53.9817 177.923 55.108C177.923 56.2343 178.836 57.1473 179.961 57.1473Z" fill="white"/>
</g>
<defs>
<clipPath id="clip0_6_2">
<rect width="182" height="69" fill="white"/>
</clipPath>
</defs>
</svg>
