<svg width="96" height="65" viewBox="0 0 96 65" fill="none" xmlns="http://www.w3.org/2000/svg">
<g clip-path="url(#clip0_7_20)">
<path d="M0 65H96V0H0V65ZM93.3709 29.3191L66.7386 2.63425H93.3841V29.3323L93.3709 29.3191ZM77.8069 46.771H64.872V33.8105H77.8069V46.771ZM64.872 31.1895V4.49139L91.5175 31.1895H64.872ZM33.7571 2.63425H62.2561V31.1895H33.7571V2.63425ZM42.0649 33.8237H54.0008V48.4569C54.0008 51.7497 51.3192 54.4367 48.0329 54.4367C44.7465 54.4367 42.0649 51.7497 42.0649 48.4569V33.8237ZM31.128 10.3921H2.62906V2.63425H31.128V10.4053V10.3921ZM2.62906 13.0263H31.128V31.1895H2.62906V13.0263ZM31.128 62.3658H2.62906V33.8105H31.128V62.3658ZM62.2561 62.3658H33.7571V33.8105H39.4359V48.4438C39.4359 53.1854 43.2874 57.0578 48.0329 57.0578C52.7783 57.0578 56.6299 53.1986 56.6299 48.4438V33.8105H62.2561V62.3658ZM64.8851 49.3921H78.5825L91.5175 62.3658H64.872V49.3921H64.8851ZM93.3841 60.4954L80.436 47.5218V33.7974H93.3841V60.4954Z" fill="white"/>
<path d="M47.9934 8.08716C43.0639 8.08716 39.0677 12.1044 39.0677 17.0568C39.0677 22.0091 43.0771 26 47.9934 26C52.9097 26 56.9453 21.9828 56.9453 17.0568C56.9453 12.1307 52.9229 8.08716 47.9934 8.08716ZM47.9934 23.379C44.5099 23.379 41.6837 20.5471 41.6837 17.0568C41.6837 13.5664 44.5099 10.7214 47.9934 10.7214C51.4769 10.7214 54.3163 13.5664 54.3163 17.0568C54.3163 20.5471 51.4769 23.379 47.9934 23.379Z" fill="white"/>
<path d="M16.8654 57.0576C21.8081 57.0576 25.8174 53.0404 25.8174 48.1144C25.8174 43.1883 21.7949 39.1448 16.8654 39.1448C11.9359 39.1448 7.92664 43.162 7.92664 48.1144C7.92664 53.0668 11.9359 57.0576 16.8654 57.0576ZM16.8654 41.7658C20.3489 41.7658 23.1883 44.6108 23.1883 48.1012C23.1883 51.5916 20.3489 54.4234 16.8654 54.4234C13.3819 54.4234 10.5557 51.5916 10.5557 48.1012C10.5557 44.6108 13.3819 41.7658 16.8654 41.7658Z" fill="white"/>
</g>
<defs>
<clipPath id="clip0_7_20">
<rect width="96" height="65" fill="white"/>
</clipPath>
</defs>
</svg>
